<?xml version="1.0" standalone="no"?>
<!DOCTYPE svg PUBLIC "-//W3C//DTD SVG 1.1//EN" "http://www.w3.org/Graphics/SVG/1.1/DTD/svg11.dtd" >
<svg xmlns="http://www.w3.org/2000/svg">
<metadata></metadata>
<defs>
<font id="altisitalic" horiz-adv-x="1206" >
<font-face units-per-em="2048" ascent="1602" descent="-446" />
<missing-glyph horiz-adv-x="491" />
<glyph unicode="&#xfb01;" horiz-adv-x="1234" d="M49 -391l189 1349h-138l9 52l145 86q-18 56 -18 108q0 106 55.5 187t139.5 121t179 40q144 0 201 -67l-29 -191q-18 44 -59.5 70.5t-101.5 26.5q-79 0 -132 -50t-53 -137q0 -48 21 -88h645l-133 -876q-6 -45 6.5 -67.5t50.5 -22.5q63 0 111 67l-23 -180q-55 -55 -164 -55 t-156 67.5t-28 190.5l108 718h-432l-188 -1349h-205zM915 1356q0 63 35 97t97 34q51 0 78.5 -23t27.5 -65q0 -60 -36.5 -92.5t-98.5 -32.5q-103 0 -103 82z" />
<glyph unicode="&#xfb02;" horiz-adv-x="1269" d="M49 -391l189 1341h-138l9 60l143 86q-19 59 -19 108q0 106 55.5 187t140 121t179.5 40q144 0 201 -67l-27 -191q-20 44 -62 70.5t-102 26.5q-79 0 -131.5 -50t-52.5 -137q0 -48 21 -88h215l-23 -166h-207l-188 -1341h-203zM764 236l180 1286h205l-176 -1266 q-9 -63 11 -92t71 -29q72 0 125 64l-25 -166q-23 -26 -69 -46t-111 -20q-124 0 -176.5 69.5t-34.5 199.5z" />
<glyph unicode="&#xfb03;" horiz-adv-x="1867" d="M49 -391l189 1349h-138l9 52l145 86q-18 56 -18 108q0 106 55.5 187t139.5 121t179 40q144 0 201 -67l-29 -191q-18 44 -59.5 70.5t-101.5 26.5q-79 0 -132 -50t-53 -137q0 -48 21 -88h426q-15 43 -15 88q0 106 56 187t141 121t180 40q144 0 201 -67l-29 -191 q-44 97 -164 97q-78 0 -130 -50.5t-52 -136.5q0 -48 21 -88h643l-133 -876q-7 -47 7 -68.5t52 -21.5q63 0 111 67l-25 -180q-49 -55 -162 -55q-109 0 -157 66t-29 192l110 718h-432l-188 -1349h-205l188 1349h-430l-188 -1349h-205zM1550 1356q0 63 34.5 97t96.5 34 q51 0 78 -23t27 -65q0 -60 -36 -92.5t-99 -32.5q-101 0 -101 82z" />
<glyph unicode="&#xfb04;" horiz-adv-x="1904" d="M49 -391l189 1349h-138l9 52l145 86q-18 56 -18 108q0 106 55.5 187t139.5 121t179 40q144 0 201 -67l-29 -191q-18 44 -59.5 70.5t-101.5 26.5q-79 0 -132 -50t-53 -137q0 -48 21 -88h426q-15 43 -15 88q0 106 56 187t141 121t180 40q144 0 201 -67l-29 -191 q-44 97 -164 97q-83 0 -132.5 -49.5t-49.5 -137.5q0 -48 21 -88h215l-23 -158h-207l-188 -1349h-205l188 1349h-430l-188 -1349h-205zM1401 236l180 1286h205l-178 -1266q-9 -63 11 -92t71 -29q76 0 125 64l-23 -166q-61 -66 -180 -66q-124 0 -176.5 69.5t-34.5 199.5z" />
<glyph horiz-adv-x="0" />
<glyph horiz-adv-x="682" />
<glyph unicode=" "  horiz-adv-x="491" />
<glyph unicode="&#x09;" horiz-adv-x="491" />
<glyph unicode="&#xa0;" horiz-adv-x="491" />
<glyph unicode="!" horiz-adv-x="524" d="M59 78q0 66 43.5 112t106.5 46q51 0 82 -30.5t31 -80.5q0 -67 -44 -112.5t-106 -45.5q-53 0 -83 30.5t-30 80.5zM139 393l113 981h231l-164 -981h-180z" />
<glyph unicode="&#x22;" horiz-adv-x="716" d="M203 1352l6 39q8 47 41.5 78.5t79.5 31.5q45 0 71 -31.5t21 -78.5l-4 -39l-111 -334h-86zM500 1352l4 39q5 46 40.5 78t82.5 32t73.5 -32t18.5 -78l-6 -39l-111 -334h-84z" />
<glyph unicode="#" horiz-adv-x="1384" d="M45 420l31 98h305l117 373h-303l28 100h307l129 410h115l-129 -410h301l129 410h115l-129 -410h303l-33 -100h-303l-117 -373h303l-32 -98h-301l-131 -420h-115l131 420h-301l-131 -420h-115l131 420h-305zM496 518h301l116 373h-301z" />
<glyph unicode="$" horiz-adv-x="1071" d="M37 180l26 197q36 -55 134.5 -95t224.5 -40q326 0 326 190q0 27 -10 48t-24 34t-40 24.5t-46.5 17.5t-54.5 15l-182 43q-117 27 -181.5 86t-64.5 168q0 149 89.5 244.5t252.5 128.5l25 174h96l-22 -160q73 5 88 5h31l22 155h94l-24 -166q88 -12 148 -40t87 -56l-26 -197 q-36 56 -132.5 95t-226.5 39q-147 0 -223 -38.5t-76 -131.5q0 -59 41.5 -88t122.5 -46l178 -41q132 -29 201.5 -87.5t69.5 -170.5q0 -142 -84 -241t-242 -142l-27 -196h-94l25 176q-74 -8 -119 -8l-25 -168h-94l23 170q-109 8 -183.5 38t-103.5 64z" />
<glyph unicode="%" horiz-adv-x="1484" d="M133 973q0 128 32 223.5t86 147.5t115 76t130 24q93 0 161 -41q66 -39 121.5 -55.5t143.5 -16.5q184 0 297 113l92 -55l-994 -1389h-133l899 1260q-80 -39 -174 -39q-92 0 -168 28q15 -47 15 -90q0 -102 -22 -183t-57.5 -132t-83.5 -85t-97.5 -47.5t-102.5 -13.5 q-260 0 -260 275zM285 983q0 -154 125 -154q88 0 141 81t53 249q0 156 -125 156q-85 0 -139.5 -83t-54.5 -249zM756 242q0 104 21.5 186t56.5 134.5t82.5 87.5t97.5 49t104 14q119 0 189.5 -66t70.5 -213q0 -104 -21.5 -186t-57 -133.5t-83.5 -85.5t-98 -48t-104 -14 q-258 0 -258 275zM907 250q0 -154 125 -154q86 0 140.5 82t54.5 248q0 158 -125 158q-85 0 -140 -84t-55 -250z" />
<glyph unicode="&#x26;" horiz-adv-x="1542" d="M41 344q0 88 30.5 165.5t81 133t110.5 95t126 61.5q-117 90 -117 225q0 116 67.5 204t178.5 132.5t246 44.5q116 0 192.5 -34t98.5 -71l-31 -221q-31 55 -106.5 100.5t-172.5 45.5q-126 0 -194 -51.5t-68 -139.5q0 -48 24 -83.5t83 -94.5l108 -108l-6 -50h-200 q-44 -17 -83 -43t-74.5 -63t-56 -88.5t-20.5 -110.5q0 -117 90.5 -180t274.5 -63q93 0 173 17.5t148 55.5t115.5 94.5t74.5 138t27 181.5q0 38 -10 63h-162l27 181h526l-26 -181h-162q8 -24 8 -55q-2 -162 -66 -293t-172 -214t-247 -127t-295 -44q-264 0 -402.5 96.5 t-138.5 280.5z" />
<glyph unicode="'" horiz-adv-x="419" d="M203 1352l6 39q8 47 41.5 78.5t79.5 31.5q45 0 71 -31.5t21 -78.5l-4 -39l-111 -334h-86z" />
<glyph unicode="(" horiz-adv-x="686" d="M68 449q0 191 66 386t190.5 356.5t281.5 240.5h189q-238 -119 -391.5 -392t-153.5 -596q0 -232 83 -414t226 -272h-186q-144 87 -224.5 275.5t-80.5 415.5z" />
<glyph unicode=")" horiz-adv-x="686" d="M-111 -242q154 79 276.5 227.5t193.5 347.5t71 412q0 230 -83.5 414t-223.5 273h184q144 -86 223.5 -273t79.5 -416q0 -191 -65.5 -386.5t-190 -357.5t-282.5 -241h-183z" />
<glyph unicode="*" horiz-adv-x="878" d="M156 1044l254 140l-217 131l96 115l182 -140l21 242h143l-43 -240l221 138l61 -109l-253 -139l213 -138l-93 -114l-180 139l-22 -238h-146l43 240l-219 -141z" />
<glyph unicode="+" horiz-adv-x="1105" d="M82 631l24 180h381l56 387h180l-53 -387h383l-25 -180h-385l-53 -387h-180l53 387h-381z" />
<glyph unicode="," horiz-adv-x="438" d="M-55 -301q102 154 135 283q-62 29 -62 98t44 112.5t110 43.5q52 0 81.5 -30t29.5 -85q0 -109 -82.5 -239t-161.5 -199z" />
<glyph unicode="-" horiz-adv-x="776" d="M113 535l24 174h525l-23 -174h-526z" />
<glyph unicode="." horiz-adv-x="436" d="M18 78q0 66 43.5 112t106.5 46q52 0 83.5 -30.5t31.5 -80.5q0 -67 -45 -112.5t-107 -45.5q-52 0 -82.5 30.5t-30.5 80.5z" />
<glyph unicode="/" horiz-adv-x="1239" d="M-59 -162l1233 1737h157l-1237 -1737h-153z" />
<glyph unicode="0" horiz-adv-x="1509" d="M92 539q0 162 43.5 302.5t118.5 242.5t174 175.5t210.5 109.5t227.5 36q271 0 421.5 -145t150.5 -416q0 -162 -43 -304t-117.5 -245.5t-173 -178t-211 -112t-229.5 -37.5q-269 0 -420.5 149.5t-151.5 422.5zM307 567q0 -203 103 -313.5t280 -110.5q104 0 199 45 t170 127.5t119.5 212t44.5 287.5q0 201 -101.5 308.5t-279.5 107.5q-103 0 -198 -43.5t-170.5 -124t-121 -209.5t-45.5 -287z" />
<glyph unicode="1" horiz-adv-x="731" d="M94 1026l25 172q286 0 459 182h96l-193 -1380h-200l157 1118q-103 -92 -344 -92z" />
<glyph unicode="2" horiz-adv-x="1026" d="M18 0l2 23l490 536q55 59 93 106.5t77.5 108.5t59.5 124t20 126q0 97 -59 150t-177 53q-106 0 -211.5 -54t-175.5 -131l31 199q60 68 169.5 116t244.5 48q193 0 287 -86.5t94 -245.5q0 -76 -23 -154t-55.5 -141t-86 -135t-97 -121t-105.5 -114l-213 -222h489l-24 -186 h-830z" />
<glyph unicode="3" horiz-adv-x="1046" d="M20 41l29 205q91 -107 273 -107q194 0 292.5 83t98.5 227q0 96 -74.5 145t-245.5 49h-71l2 23l405 528h-547l25 180h829l-4 -22l-428 -559q160 -20 244 -93t84 -215q0 -74 -22 -146t-71 -140t-119 -119t-174.5 -82t-228.5 -31q-185 0 -297 74z" />
<glyph unicode="4" horiz-adv-x="1134" d="M-8 299l4 23l543 1052h192l-446 -887h426l75 531h193l-74 -531h158l-25 -188h-157l-43 -299h-193l41 299h-694z" />
<glyph unicode="5" horiz-adv-x="1048" d="M23 41l26 205q112 -107 293 -107t277 83t96 222q0 94 -69 141.5t-222 47.5q-175 0 -281 -64l142 805h737l-27 -180h-561l-69 -418q21 11 70.5 20t92.5 9q199 0 302.5 -78t103.5 -233q0 -153 -77.5 -273.5t-214 -187t-306.5 -66.5q-201 0 -313 74z" />
<glyph unicode="6" horiz-adv-x="1132" d="M68 393q0 164 56 322t151 283.5t217 222.5t258 153h288l-2 -10q-474 -171 -647 -537q116 93 277 93q187 0 285 -96.5t98 -268.5q0 -162 -70.5 -295.5t-202 -213t-297.5 -79.5q-198 0 -304.5 115.5t-106.5 310.5zM274 403q0 -122 60.5 -190t179.5 -68q144 0 236 104 t92 263q0 113 -61.5 177.5t-180.5 64.5q-182 0 -293 -127q-33 -112 -33 -224z" />
<glyph unicode="7" horiz-adv-x="915" d="M113 1194l24 180h869l-2 -22l-662 -1352h-205l590 1194h-614z" />
<glyph unicode="8" horiz-adv-x="1161" d="M59 297q0 153 85.5 257t226.5 146q-85 32 -135 100t-50 167q0 200 146 319t375 119q188 0 287.5 -81t99.5 -230t-75.5 -245.5t-199.5 -141.5q101 -26 157 -100t56 -183q0 -198 -151 -327.5t-404 -129.5q-208 0 -313 89t-105 241zM268 340q0 -91 61 -143t185 -52 q152 0 234.5 76.5t82.5 202.5q0 90 -61.5 140t-187.5 50q-150 0 -232 -75t-82 -199zM383 963q0 -85 57 -132t162 -47q131 0 211 70t80 190q0 89 -58 137t-167 48q-130 0 -207.5 -71t-77.5 -195z" />
<glyph unicode="9" horiz-adv-x="1132" d="M104 821q0 161 71.5 294t203 211.5t295.5 78.5q198 0 304.5 -115t106.5 -309q0 -161 -54 -318t-145.5 -284t-212 -226t-253.5 -153h-303v10q474 172 649 535q-119 -92 -279 -92q-187 0 -285 97.5t-98 270.5zM313 858q0 -111 61 -174t179 -63q185 0 293 127q33 109 33 223 q0 120 -60.5 188t-177.5 68q-145 0 -236.5 -104t-91.5 -265z" />
<glyph unicode=":" horiz-adv-x="524" d="M59 78q0 66 43.5 112t106.5 46q52 0 83.5 -30.5t31.5 -80.5q0 -67 -45 -112.5t-107 -45.5q-52 0 -82.5 30.5t-30.5 80.5zM170 866q0 66 43 112t106 46q52 0 83.5 -30.5t31.5 -80.5q0 -67 -44.5 -112t-106.5 -45q-52 0 -82.5 30t-30.5 80z" />
<glyph unicode=";" horiz-adv-x="555" d="M-6 -301q102 154 135 283q-61 28 -61 98q0 69 43.5 112.5t109.5 43.5q52 0 81.5 -30t29.5 -85q0 -109 -82.5 -239t-161.5 -199zM186 866q0 66 43.5 112t106.5 46q52 0 83.5 -30.5t31.5 -80.5q0 -67 -45 -112t-107 -45q-52 0 -82.5 30t-30.5 80z" />
<glyph unicode="&#x3c;" horiz-adv-x="1091" d="M70 688l2 10l968 559l-28 -206l-637 -367l534 -365l-26 -190z" />
<glyph unicode="=" horiz-adv-x="1150" d="M109 406l24 169h873l-25 -169h-872zM172 846l23 172h872l-23 -172h-872z" />
<glyph unicode="&#x3e;" horiz-adv-x="1093" d="M74 129l26 190l637 365l-534 367l28 206l813 -559l-2 -10z" />
<glyph unicode="?" horiz-adv-x="927" d="M137 1036l29 217q52 66 163 109t236 43q170 0 261.5 -73.5t91.5 -203.5q0 -58 -15 -111t-35 -91t-58 -83t-66 -71.5t-78 -71.5q-72 -66 -109 -131t-49 -151l-4 -29h-207l4 27q9 71 29.5 129t56 107t68 84t86.5 83q80 71 117.5 126.5t37.5 131.5q0 67 -46 107.5t-146 40.5 q-104 0 -208.5 -53.5t-158.5 -135.5zM229 78q0 66 43.5 112t106.5 46q52 0 83.5 -30.5t31.5 -80.5q0 -67 -45 -112.5t-107 -45.5q-52 0 -82.5 30.5t-30.5 80.5z" />
<glyph unicode="@" horiz-adv-x="1861" d="M70 457q0 187 52.5 346t144.5 271.5t216 192t267.5 118t298.5 38.5q162 0 297.5 -42t236 -122.5t157 -207t56.5 -287.5q0 -190 -55 -349t-161 -256.5t-241 -97.5q-101 0 -168 54.5t-71 150.5q-16 -59 -89 -106t-171 -47q-148 0 -233 97.5t-85 281.5q0 248 128.5 402.5 t320.5 154.5q153 0 213 -107l22 80h140l-101 -692q-9 -69 21.5 -110.5t97.5 -41.5q41 0 82 22.5t80 70t69 114t48 162.5t18 207q0 183 -81.5 309t-220.5 185t-325 59q-133 0 -254 -32t-225 -100t-180.5 -165t-120 -235.5t-43.5 -303.5q0 -289 169.5 -464t444.5 -175 q234 0 383 76l-18 -135q-145 -64 -383 -64q-212 0 -379 91.5t-262.5 262.5t-95.5 394zM698 502q0 -120 47 -188t144 -68q145 0 198 139l64 449q-46 86 -158 86q-145 0 -220 -117t-75 -301z" />
<glyph unicode="A" horiz-adv-x="1247" d="M-70 0l678 1241l-28 133h217l356 -1374h-219l-78 311h-559l-166 -311h-201zM379 467h438l-119 473l-18 100l-49 -100z" />
<glyph unicode="B" d="M80 0l190 1374h400q246 0 360.5 -70.5t114.5 -209.5q0 -159 -88.5 -255t-237.5 -122v-6q125 -16 190.5 -75.5t65.5 -176.5q0 -100 -33 -181.5t-101 -144.5t-181.5 -98t-265.5 -35h-414zM311 172h213q182 0 264 70t82 202q0 90 -66.5 134.5t-217.5 44.5h-211zM397 791h199 q179 0 258.5 64t79.5 187q0 84 -66.5 122t-214.5 38h-196z" />
<glyph unicode="C" horiz-adv-x="1202" d="M94 516q0 173 40.5 319.5t110.5 250t164 176.5t200.5 108t219.5 35q262 0 371 -117l-33 -235q-88 174 -333 174q-111 0 -205.5 -42.5t-166.5 -124.5t-112.5 -211.5t-40.5 -293.5q0 -200 96 -304t277 -104q244 0 381 162l-29 -207q-67 -64 -172.5 -99.5t-226.5 -35.5 q-258 0 -399.5 137.5t-141.5 411.5z" />
<glyph unicode="D" horiz-adv-x="1359" d="M80 0l190 1374h381q310 0 471.5 -125t161.5 -399q0 -153 -31 -280.5t-88 -219t-132.5 -160t-169.5 -109.5t-194 -61t-210 -20h-379zM311 180h172q295 0 441.5 158t146.5 483q0 193 -105.5 283t-340.5 90h-170z" />
<glyph unicode="E" horiz-adv-x="1122" d="M80 0l190 1374h867l-25 -180h-657l-58 -401h432l-22 -166h-432l-64 -447h658l-25 -180h-864z" />
<glyph unicode="F" horiz-adv-x="1069" d="M80 0l190 1374h844l-27 -180h-632l-60 -418h420l-22 -160h-420l-84 -616h-209z" />
<glyph unicode="G" horiz-adv-x="1300" d="M92 526q0 171 42.5 316t116 247t171 174.5t208 107t226.5 34.5q292 0 410 -135l-33 -238q-102 195 -379 195q-116 0 -214.5 -43t-173 -124.5t-117 -209.5t-42.5 -289q0 -202 99 -313t272 -111q133 0 227 43l60 434h209l-74 -532q-192 -115 -455 -115q-126 0 -226.5 34 t-174 102t-113 175.5t-39.5 247.5z" />
<glyph unicode="H" horiz-adv-x="1404" d="M80 0l190 1374h209l-82 -579h658l82 579h209l-191 -1374h-209l86 614h-657l-86 -614h-209z" />
<glyph unicode="I" horiz-adv-x="538" d="M80 0l190 1374h209l-190 -1374h-209z" />
<glyph unicode="J" horiz-adv-x="880" d="M-18 59l32 232q33 -63 89 -102t130 -39q115 0 174.5 60.5t79.5 203.5l111 780h-317l24 180h526l-137 -987q-16 -116 -58 -199.5t-104.5 -130.5t-134 -68.5t-157.5 -21.5q-93 0 -160 26.5t-98 65.5z" />
<glyph unicode="K" horiz-adv-x="1251" d="M80 0l190 1374h209l-96 -680l713 680h217l-574 -545l410 -829h-229l-326 688l-242 -229l-63 -459h-209z" />
<glyph unicode="L" horiz-adv-x="972" d="M80 0l190 1374h209l-166 -1194h557l-24 -180h-766z" />
<glyph unicode="M" horiz-adv-x="1619" d="M80 0l190 1374h195l362 -702l541 702h193l-193 -1374h-209l146 1040l-529 -678h-2l-342 678l-143 -1040h-209z" />
<glyph unicode="N" horiz-adv-x="1392" d="M80 0l176 1262l-63 112h241l570 -1009h2l141 1009h188l-192 -1374h-154l-577 1020h-4l-142 -1020h-186z" />
<glyph unicode="O" horiz-adv-x="1492" d="M90 526q0 142 31.5 268t87 221t129.5 170t160 122.5t177 72.5t183 25q264 0 413.5 -143.5t149.5 -417.5q0 -170 -45 -315.5t-121 -247t-175 -174t-207 -106.5t-218 -34q-265 0 -415 141.5t-150 417.5zM307 559q0 -204 97.5 -309t277.5 -105q106 0 200 44t167 126.5 t116 211t43 286.5q0 203 -97.5 308.5t-276.5 105.5q-107 0 -202 -44t-167.5 -126t-115 -210.5t-42.5 -287.5z" />
<glyph unicode="P" horiz-adv-x="1165" d="M80 0l190 1374h385q260 0 382 -88t122 -260q0 -123 -39.5 -227t-116 -182.5t-199.5 -123t-280 -44.5h-100l22 159h101q194 0 294.5 99.5t100.5 271.5q0 115 -75.5 171t-237.5 56h-172l-168 -1206h-209z" />
<glyph unicode="Q" horiz-adv-x="1492" d="M92 526q0 142 31.5 268t87 221t129.5 170t160 122.5t177 72.5t183 25q264 0 413.5 -143.5t149.5 -417.5q0 -180 -50 -332t-135.5 -256t-191.5 -171.5t-225 -96.5l211 -283h-250l-180 264q-241 14 -375.5 155t-134.5 402zM309 559q0 -204 97.5 -309t277.5 -105 q106 0 200 44t167 126.5t116 211t43 286.5q0 203 -97.5 308.5t-276.5 105.5q-107 0 -202 -44t-167.5 -126t-115 -210.5t-42.5 -287.5z" />
<glyph unicode="R" horiz-adv-x="1175" d="M80 0l190 1374h375q471 0 471 -325q0 -207 -132 -343.5t-351 -164.5l438 -541h-244l-415 535h-50l-73 -535h-209zM383 682h164q167 0 260.5 86.5t93.5 239.5q0 198 -280 198h-164z" />
<glyph unicode="S" horiz-adv-x="1040" d="M23 80l34 231q37 -71 123 -117.5t211 -46.5q146 0 236 74t90 199q0 73 -51 112t-158 66l-80 20q-276 67 -276 312q0 218 149.5 346.5t386.5 128.5q134 0 217 -32.5t119 -76.5l-33 -231q-35 68 -123 114t-213 46q-137 0 -217 -62.5t-80 -181.5q0 -72 45.5 -112t145.5 -64 l80 -21q147 -37 221 -108.5t74 -198.5q0 -226 -155 -368t-411 -142q-136 0 -217 33.5t-118 79.5z" />
<glyph unicode="T" horiz-adv-x="1138" d="M125 1194l27 180h1050l-26 -180h-420l-166 -1194h-209l166 1194h-422z" />
<glyph unicode="U" horiz-adv-x="1431" d="M139 340q-5 39 -5 83q0 70 13 152l113 799h209l-115 -803q-9 -64 -9 -119q0 -133 54 -205q76 -102 254 -102q176 0 281 102.5t135 323.5l113 803h204l-110 -799q-22 -156 -81.5 -274.5t-148.5 -190.5t-197 -107.5t-235 -35.5q-104 0 -184.5 20.5t-144 65t-98.5 115 t-48 172.5z" />
<glyph unicode="V" d="M121 1374h217l221 -1052h6l525 1052h202l-696 -1374h-172z" />
<glyph unicode="W" horiz-adv-x="1830" d="M141 1374h215l136 -1063h8l399 871l-35 192h207l191 -1063h8l436 1063h205l-604 -1374h-179l-170 942l-436 -942h-170z" />
<glyph unicode="X" horiz-adv-x="1153" d="M-57 0l536 713l-307 661h223l236 -497l352 497h213l-494 -645l338 -729h-223l-262 565l-399 -565h-213z" />
<glyph unicode="Y" horiz-adv-x="1144" d="M113 1374h231l256 -608l434 608h207l-571 -788l-82 -586h-209l82 586z" />
<glyph unicode="Z" horiz-adv-x="1036" d="M-16 0l6 51l780 1145h-608l24 178h875l-6 -51l-776 -1145h620l-22 -178h-893z" />
<glyph unicode="[" horiz-adv-x="684" d="M29 -242l237 1682h475l-20 -148h-311l-195 -1386h311l-20 -148h-477z" />
<glyph unicode="\" horiz-adv-x="1232" d="M174 1575h158l745 -1737h-153z" />
<glyph unicode="]" horiz-adv-x="684" d="M-61 -242l20 148h311l195 1386h-311l20 148h475l-235 -1682h-475z" />
<glyph unicode="^" horiz-adv-x="1009" d="M129 958l508 631h10l332 -631h-197l-186 359l-287 -359h-180z" />
<glyph unicode="_" horiz-adv-x="1585" d="M90 -315l23 161h1132l-22 -161h-1133z" />
<glyph unicode="`" horiz-adv-x="1130" d="M512 1522h199l202 -265h-188z" />
<glyph unicode="a" d="M74 446q0 313 154.5 507t389.5 194q95 0 164 -35t105 -98l26 100h166l-123 -870q-2 -16 -2 -29q0 -30 11 -44q16 -21 53 -21q60 0 108 67l-24 -180q-18 -20 -58.5 -37.5t-97.5 -17.5q-84 0 -130 41.5t-52 119.5q-29 -72 -110 -124t-197 -52q-181 0 -282 123t-101 356z M285 459q0 -152 57.5 -238t173.5 -86q95 0 158 49t90 125l80 565q-24 48 -74 79.5t-121 31.5q-120 0 -203.5 -71.5t-122 -187.5t-38.5 -267z" />
<glyph unicode="b" horiz-adv-x="1181" d="M59 0l215 1522h203l-71 -510q43 61 120.5 99t180.5 38q385 0 385 -467q0 -161 -43.5 -296.5t-118.5 -226.5t-176 -141.5t-215 -50.5q-96 0 -167.5 38t-109.5 104l-45 -109h-158zM299 262q30 -65 88 -98t135 -33q115 0 197.5 71.5t122 190t39.5 269.5q0 160 -55 239.5 t-177 79.5q-99 0 -170.5 -56.5t-105.5 -138.5z" />
<glyph unicode="c" horiz-adv-x="995" d="M74 451q0 140 33 256.5t90 197t135 136t166.5 81t185.5 25.5q183 0 279 -103l-33 -217q-92 144 -268 144q-169 0 -272 -137.5t-103 -376.5q0 -157 64.5 -234.5t197.5 -77.5q183 0 315 148l-30 -211q-50 -50 -134 -82.5t-190 -32.5q-207 0 -321.5 122.5t-114.5 361.5z" />
<glyph unicode="d" horiz-adv-x="1234" d="M74 449q0 160 43.5 293t119 221.5t176.5 137t216 48.5q85 0 156.5 -34.5t107.5 -90.5l68 498h204l-178 -1278q-2 -17 -2 -30q0 -29 10 -43q15 -21 52 -21q60 0 108 67l-22 -180q-18 -20 -58.5 -37.5t-99.5 -17.5q-181 0 -184 176q-29 -83 -117.5 -137t-214.5 -54 q-189 0 -287 122.5t-98 359.5zM283 457q0 -160 55.5 -241t177.5 -81q99 0 173 57t106 138l71 522q-29 65 -87.5 99t-135.5 34q-172 0 -266 -148t-94 -380z" />
<glyph unicode="e" horiz-adv-x="1077" d="M76 469q0 154 46 284t124 215t179.5 132t213.5 47q174 0 271.5 -87.5t97.5 -246.5q0 -172 -137.5 -279.5t-374.5 -107.5q-123 0 -199 27q-2 -12 -2 -31q0 -125 77.5 -204t213.5 -79q223 0 334 164l-27 -203q-38 -54 -125 -93.5t-213 -39.5q-225 0 -352 128t-127 374z M299 594q64 -23 156 -23q171 0 259.5 60t88.5 174q0 81 -47 127.5t-140 46.5q-122 0 -211 -101.5t-106 -283.5z" />
<glyph unicode="f" horiz-adv-x="665" d="M49 -391l189 1341h-138l9 60l143 86q-19 59 -19 108q0 107 55.5 187.5t145 120.5t197.5 40q91 0 149 -20.5t80 -46.5l-29 -191q-20 43 -68.5 70t-119.5 27q-97 0 -153 -49t-56 -138q0 -48 21 -88h235l-22 -166h-228l-188 -1341h-203z" />
<glyph unicode="g" horiz-adv-x="1177" d="M14 -276l43 206q36 -80 131.5 -133t210.5 -53q165 0 246.5 79t106.5 261l14 102q-41 -63 -114.5 -102t-172.5 -39q-181 0 -286 125t-105 344q0 276 153 455.5t388 179.5q100 0 172.5 -43.5t103.5 -112.5l31 123h166l-148 -1057q-34 -246 -171 -364.5t-402 -118.5 q-126 0 -226 41.5t-141 106.5zM297 524q0 -137 63 -224t181 -87q184 0 254 172l67 467q-21 58 -78.5 95.5t-140.5 37.5q-73 0 -132 -26.5t-98 -70.5t-66 -104t-38.5 -125t-11.5 -135z" />
<glyph unicode="h" horiz-adv-x="1214" d="M59 0l213 1522h205l-76 -551q43 76 128.5 126t197.5 50q208 1 287 -127q52 -83 52 -212q0 -68 -15 -149l-76 -419q-3 -18 -3 -32q0 -58 54 -58q59 0 111 67l-25 -180q-48 -55 -154 -55t-156 67q-35 46 -35 119q0 33 7 72l68 381q16 86 16 152q0 81 -24 128 q-44 86 -175 86q-101 0 -176 -58t-108 -138l-111 -791h-205z" />
<glyph unicode="i" horiz-adv-x="595" d="M119 948l24 168h320l-133 -876q-2 -16 -2 -28q0 -26 9 -40q14 -22 52 -22q63 0 111 67l-25 -180q-55 -55 -162 -55q-109 0 -157 66q-34 47 -35 124q0 32 6 68l113 708h-121zM279 1356q0 62 34.5 96.5t94.5 34.5q51 0 78.5 -23t27.5 -65q0 -60 -36 -92.5t-99 -32.5 q-100 0 -100 82z" />
<glyph unicode="j" horiz-adv-x="548" d="M-248 -348l25 170q25 -34 66.5 -55t82.5 -21q76 0 118 37.5t54 122.5l152 1042h-135l24 168h332l-166 -1188q-24 -164 -112.5 -253t-243.5 -89q-66 0 -119.5 20t-77.5 46zM285 1356q0 62 34.5 96.5t94.5 34.5q51 0 78.5 -23t27.5 -65q0 -60 -36 -92.5t-99 -32.5 q-100 0 -100 82z" />
<glyph unicode="k" horiz-adv-x="1132" d="M59 0l213 1522h205l-78 -545q64 64 179 117t231 53q122 0 187 -63.5t65 -170.5q0 -234 -307 -403l250 -510h-218l-206 426q-114 -46 -271 -90l-45 -336h-205zM332 485q281 104 402.5 192.5t121.5 194.5q0 107 -117 107q-79 0 -192 -61.5t-174 -131.5z" />
<glyph unicode="l" horiz-adv-x="610" d="M106 236l181 1286h205l-179 -1266q-3 -20 -3 -36q0 -36 14 -56q20 -29 71 -29q76 0 125 64l-22 -166q-61 -66 -181 -66q-125 -1 -177 69q-39 52 -39 138q0 29 5 62z" />
<glyph unicode="m" horiz-adv-x="1822" d="M59 0l156 1116h191l-5 -145q43 75 127.5 125.5t190.5 50.5q243 0 295 -195q44 87 130 141t202 54q329 0 329 -326q0 -73 -16 -162l-76 -419q-3 -18 -3 -32q0 -58 54 -58q63 0 111 67l-25 -180q-43 -55 -153 -55q-107 0 -157 67q-35 46 -35 119q0 33 7 72l68 381 q16 92 16 160q0 77 -20 121q-38 86 -168 85q-83 0 -147.5 -39t-102.5 -106q0 -81 -12 -183l-92 -659h-205l86 621q15 106 15 179q0 16 -1 32q-4 82 -43 118.5t-125 36.5q-95 0 -169 -59t-107 -137l-111 -791h-205z" />
<glyph unicode="n" horiz-adv-x="1216" d="M59 0l156 1116h191l-5 -145q43 76 129.5 126t198.5 50q209 0 287 -127q51 -83 52 -211q0 -69 -15 -150l-76 -419q-3 -18 -3 -32q0 -58 54 -58q59 0 111 67l-25 -180q-48 -55 -153 -55q-107 0 -157 67q-35 46 -35 119q0 33 7 72l68 381q16 88 16 154q0 81 -24 127 q-43 85 -174 85q-101 0 -177.5 -58.5t-109.5 -137.5l-111 -791h-205z" />
<glyph unicode="o" horiz-adv-x="1175" d="M72 430q0 142 33 261t90 202t133 141t161.5 85.5t176.5 27.5q194 0 306.5 -115.5t112.5 -345.5q0 -143 -32.5 -263t-88 -203t-131 -141t-160.5 -85t-177 -27q-195 0 -309.5 115.5t-114.5 347.5zM281 440q0 -148 60.5 -226.5t180.5 -78.5q157 0 256 147.5t99 385.5 q0 311 -240 311q-157 0 -256.5 -149t-99.5 -390z" />
<glyph unicode="p" horiz-adv-x="1183" d="M6 -391l211 1507h174l-10 -149q35 79 121 130.5t209 51.5q385 0 385 -467q0 -161 -43.5 -296.5t-118.5 -226.5t-176.5 -141.5t-216.5 -50.5q-86 0 -157 35t-105 92l-70 -485h-203zM301 264q30 -66 89 -99.5t136 -33.5q114 0 197 71.5t122.5 190t39.5 269.5 q0 160 -55 239.5t-177 79.5q-99 0 -172.5 -57t-105.5 -138z" />
<glyph unicode="q" horiz-adv-x="1183" d="M74 449q0 160 43.5 293t119 221.5t176.5 137t216 48.5q192 0 276 -141l43 108h158l-211 -1507h-205l70 495q-45 -62 -121 -99.5t-180 -37.5q-189 0 -287 122.5t-98 359.5zM283 457q0 -160 55.5 -241t177.5 -81q99 0 171 56t106 139l73 522q-29 66 -87.5 99.5t-135.5 33.5 q-172 0 -266 -148t-94 -380z" />
<glyph unicode="r" horiz-adv-x="733" d="M59 0l156 1116h178l-12 -207q31 117 106 177.5t164 60.5q42 0 66 -19.5t31 -46.5l-25 -192q-19 35 -44 53.5t-65 18.5q-72 0 -141.5 -61.5t-107.5 -174.5l-101 -725h-205z" />
<glyph unicode="s" horiz-adv-x="931" d="M31 113l32 204q49 -81 130.5 -131.5t195.5 -50.5q110 0 169.5 42t59.5 120q0 60 -39 95.5t-120 64.5l-97 32q-113 39 -181 114t-68 190q0 162 110.5 258t300.5 96q127 0 218 -39t126 -96l-28 -207q-39 79 -126 127.5t-196 48.5q-94 0 -152.5 -41t-58.5 -119 q0 -64 39 -97.5t121 -64.5l96 -34q123 -43 186.5 -111.5t63.5 -187.5q0 -164 -118.5 -261.5t-319.5 -97.5q-118 0 -213 44.5t-131 101.5z" />
<glyph unicode="t" horiz-adv-x="753" d="M96 950l8 60l136 106l192 260h70l-37 -260h285l-23 -166h-285l-94 -669q-3 -23 -4 -42q0 -104 100 -104q57 0 105 28.5t78 76.5l-25 -185q-32 -37 -90.5 -62.5t-136.5 -25.5q-240 0 -240 227q0 35 6 74l99 682h-144z" />
<glyph unicode="u" horiz-adv-x="1255" d="M104 948l27 168h330l-105 -653q-11 -68 -10 -122q0 -83 24 -132q42 -82 171 -82q96 0 167.5 58.5t104.5 138.5l113 792h202l-122 -876q-2 -13 -2 -25q0 -29 12 -44q16 -21 51 -21q61 0 109 67l-25 -180q-18 -20 -58 -37.5t-98 -17.5q-86 0 -135 43t-55 127 q-36 -76 -125.5 -130.5t-198.5 -54.5q-196 1 -281 119q-60 84 -60 218q0 56 10 120l86 524h-132z" />
<glyph unicode="v" horiz-adv-x="1179" d="M104 948l27 168h330l-99 -631q-10 -64 -14 -112q-1 -18 0 -35q0 -30 3 -60q6 -47 24 -76.5t53 -48t88 -18.5q96 0 171 80t119.5 216t64.5 312q14 126 14 262q0 55 -2 111h209q2 -58 2 -114q0 -208 -32 -382q-41 -220 -124 -362t-197.5 -216.5t-251.5 -74.5 q-205 -1 -289 129q-57 87 -57 229q0 69 13 150l80 473h-132z" />
<glyph unicode="w" horiz-adv-x="1656" d="M94 948l25 168h344l-96 -620q-15 -94 -15 -164q0 -197 121 -197q90 0 158.5 100t106 267t46.5 383h213l-49 -375q-8 -61 -12 -104.5t-5 -89.5v-13q0 -37 5 -63q6 -30 18.5 -55.5t35 -37.5t54.5 -12q107 0 181 138t105 358q24 170 24 368q0 57 -2 117h209q2 -58 2 -114 q0 -160 -17 -300q-23 -188 -71.5 -323t-118.5 -228.5t-155 -138.5t-181 -45q-227 0 -246 283q-48 -147 -135.5 -215t-189.5 -68q-181 0 -255 132q-48 84 -47 219q0 76 15 167l78 463h-146z" />
<glyph unicode="x" horiz-adv-x="1105" d="M-39 0l463 575l-166 373h-143l24 168h254l178 -397l299 397h209l-440 -543l154 -337q25 -53 50 -75t60 -22q61 0 96 49l-22 -168q-43 -49 -141 -49q-140 0 -211 160l-129 289l-324 -420h-211z" />
<glyph unicode="y" d="M43 -276l41 206q36 -80 132 -133t212 -53q164 0 245.5 79t106.5 261l17 123q-34 -71 -119 -116.5t-184 -45.5q-196 0 -282 118q-60 84 -60 219q0 56 10 120l74 446h-136l25 168h336l-92 -575q-11 -68 -11 -122q0 -83 26 -133q41 -81 169 -81q97 0 168 57.5t102 136.5 l101 717h204l-147 -1057q-34 -246 -170.5 -364.5t-400.5 -118.5q-126 0 -226 41.5t-141 106.5z" />
<glyph unicode="z" horiz-adv-x="993" d="M-2 0l625 948h-510l20 168h805l-573 -887q36 -43 98.5 -68.5t136.5 -25.5q190 0 289 174l-39 -239q-31 -47 -101.5 -75t-175.5 -28q-185 0 -299 131l-67 -98h-209z" />
<glyph unicode="{" horiz-adv-x="751" d="M6 537l19 129l79 10q73 8 122 51t59 121l45 321q43 301 323 301q99 0 150 -40l-21 -150q-51 41 -127 41q-136 0 -157 -150l-47 -317q-19 -130 -83.5 -185t-168.5 -65v-6q48 -5 83 -18t62.5 -40.5t37 -75.5t-0.5 -116l-45 -323q-22 -150 117 -150q73 0 139 41l-23 -147 q-62 -41 -161 -41q-144 0 -202 74t-36 227l47 327q10 75 -26.5 118t-106.5 52z" />
<glyph unicode="|" horiz-adv-x="460" d="M16 -307l258 1839h168l-258 -1839h-168z" />
<glyph unicode="}" horiz-adv-x="751" d="M-59 -231l22 147q52 -41 129 -41q139 0 158 150l45 323q19 130 84 185t168 65v6q-47 5 -81.5 18.5t-62 41t-37 75.5t0.5 115l45 317q10 73 -20.5 111.5t-96.5 38.5q-77 0 -141 -41l22 150q64 40 162 40q280 0 237 -301l-45 -321q-10 -78 26.5 -121t107.5 -51l75 -10 l-18 -129l-78 -11q-72 -8 -121 -51.5t-59 -118.5l-47 -327q-22 -153 -100 -227t-222 -74q-96 0 -153 41z" />
<glyph unicode="~" horiz-adv-x="1327" d="M102 518q27 192 116 292.5t239 100.5q86 0 151.5 -35t143.5 -104q104 -94 172 -94q66 0 104.5 46t56.5 167h172q-28 -190 -118 -290.5t-236 -100.5q-39 0 -75.5 9t-58.5 17t-58.5 34t-47.5 34.5t-53 44.5q-57 48 -96.5 70t-77.5 22q-68 0 -107 -45.5t-55 -167.5h-172z " />
<glyph unicode="&#xa1;" horiz-adv-x="499" d="M12 -258l164 981h180l-112 -981h-232zM174 991q0 67 44 112.5t106 45.5q53 0 82.5 -30.5t29.5 -80.5q0 -66 -43 -111.5t-106 -45.5q-51 0 -82 30t-31 80z" />
<glyph unicode="&#xa2;" horiz-adv-x="1060" d="M94 516q0 181 51 323.5t139 229.5t198.5 131.5t236.5 44.5q26 0 76 -4l67 174h88l-73 -190q97 -29 141 -92l-31 -220q-56 109 -174 142l-305 -805q37 -6 78 -6q206 0 336 153l-27 -202q-50 -54 -143 -91.5t-205 -37.5q-63 0 -107 8l-67 -183h-88l75 201 q-128 41 -197 147.5t-69 276.5zM305 545q0 -202 125 -269l299 791q-4 0 -13.5 1t-13.5 1q-182 0 -289.5 -138.5t-107.5 -385.5z" />
<glyph unicode="&#xa3;" horiz-adv-x="1214" d="M-4 4l24 186q21 -30 56 -30q73 0 94 90l84 336h-164l16 108h177l47 187q63 246 193 358.5t356 112.5q105 0 174 -34t102 -81l-33 -242q-78 168 -268 168q-139 0 -209 -69t-106 -213l-47 -187h370l-16 -108h-381l-78 -307l92 -46q155 -79 301 -79q93 0 172.5 52.5 t122.5 127.5l-35 -240q-103 -127 -321 -127q-160 0 -328 113l-59 39q-77 -148 -240 -148q-70 0 -96 33z" />
<glyph unicode="&#xa4;" horiz-adv-x="1218" d="M43 164l180 184q-30 67 -30 187q0 316 124 483l-129 188l93 70l120 -174q117 88 295 88q177 0 265 -82l163 168l70 -70l-176 -180q35 -71 35 -190q0 -326 -129 -496l123 -176l-91 -72l-116 166q-112 -80 -285 -80q-185 0 -274 86l-166 -172zM358 569q0 -121 51.5 -181 t165.5 -60q153 0 232.5 124t79.5 353q0 119 -50 177t-163 58q-154 0 -235 -122.5t-81 -348.5z" />
<glyph unicode="&#xa5;" horiz-adv-x="1251" d="M119 389l16 105h361l16 124h-360l14 107h313l-309 594h227l256 -514l408 514h207l-473 -594h313l-14 -107h-361l-18 -124h362l-16 -105h-361l-53 -389h-221l55 389h-362z" />
<glyph unicode="&#xa6;" horiz-adv-x="468" d="M20 -307l117 821h166l-115 -821h-168zM166 711l113 821h167l-114 -821h-166z" />
<glyph unicode="&#xa7;" horiz-adv-x="1079" d="M2 -205l31 213q36 -64 122 -102.5t205 -38.5q154 0 240 50.5t86 150.5q0 26 -11.5 47t-30 35.5t-51 27t-64 20.5t-80.5 19l-74 16q-134 30 -206.5 94.5t-72.5 176.5q0 115 72.5 212.5t173.5 143.5q-141 67 -141 221q0 193 141.5 297.5t376.5 104.5q119 0 211.5 -30 t124.5 -69l-31 -210q-36 62 -124 99.5t-206 37.5q-145 0 -222 -39.5t-77 -136.5q0 -61 50.5 -89.5t170.5 -54.5l78 -16q145 -30 220 -90.5t75 -173.5q0 -127 -70 -223t-171 -148q137 -58 137 -207q0 -201 -152.5 -317.5t-410.5 -116.5q-120 0 -203.5 28.5t-116.5 67.5z M295 573q0 -64 36 -98t101 -49l111 -25l69 -16q62 20 119 90.5t57 159.5q0 64 -39.5 97t-111.5 50l-117 29q-40 9 -59 16q-62 -24 -114 -92t-52 -162z" />
<glyph unicode="&#xa8;" horiz-adv-x="1130" d="M358 1364q0 54 35.5 84.5t91.5 30.5q46 0 71.5 -21t25.5 -59q0 -55 -33 -85t-92 -30q-47 0 -73 20.5t-26 59.5zM766 1362q0 56 34 86.5t89 30.5q46 0 72 -21t26 -59q0 -55 -34 -85t-93 -30q-45 0 -69.5 20t-24.5 58z" />
<glyph unicode="&#xa9;" horiz-adv-x="1857" d="M82 549q0 189 53 352.5t145.5 281.5t216.5 202t267 125.5t295 41.5q161 0 296 -45.5t234.5 -132t155 -219.5t55.5 -299q0 -189 -53.5 -353t-147 -282.5t-218 -203.5t-268 -127t-294.5 -42q-160 0 -294.5 46t-233 133t-154 221t-55.5 301zM225 561q0 -190 79 -325 t216 -201t320 -66q130 0 250.5 35.5t223 108.5t179 176.5t119.5 247t43 311.5q0 142 -44.5 254t-126 183.5t-193.5 109t-249 37.5q-129 0 -249 -35t-223.5 -107t-180 -174t-120.5 -245t-44 -310zM487 580q0 131 34.5 241t91 183.5t130 125t149 74.5t150.5 23q186 0 271 -88 l-25 -176q-59 127 -264 127q-162 0 -269.5 -124.5t-107.5 -353.5q0 -144 70.5 -220.5t200.5 -76.5q200 0 296 121l-24 -164q-103 -92 -293 -92q-89 0 -162 22.5t-129.5 69t-87.5 125t-31 183.5z" />
<glyph unicode="&#xaa;" horiz-adv-x="989" d="M137 379l19 141h675l-18 -141h-676zM150 864q0 75 29 128.5t89.5 89.5t138 58.5t191.5 39.5l152 22q6 30 6 60q0 89 -50 126t-157 37q-108 0 -192.5 -45t-127.5 -116l25 166q38 47 123 84.5t219 37.5q164 0 246 -65.5t82 -202.5q0 -40 -6 -86l-74 -512h-152l-4 86 q-28 -44 -96 -76t-164 -32q-129 0 -203.5 49t-74.5 151zM317 885q0 -107 156 -107q77 0 139.5 26.5t92.5 63.5l30 230l-139 -27q-156 -31 -217.5 -69t-61.5 -117z" />
<glyph unicode="&#xab;" horiz-adv-x="1134" d="M49 510q280 270 422 491h188q-160 -241 -407 -491q148 -206 266 -510h-188q-100 273 -281 510zM479 510q280 270 422 491h189q-158 -238 -408 -491q148 -206 266 -510h-188q-97 272 -281 510z" />
<glyph unicode="&#xac;" horiz-adv-x="1200" d="M135 621l25 182h919l-78 -553h-182l53 371h-737z" />
<glyph unicode="&#xad;" horiz-adv-x="776" d="M113 535l24 174h525l-23 -174h-526z" />
<glyph unicode="&#xae;" horiz-adv-x="1148" d="M156 999q0 130 45.5 238t121.5 178t174 108t205 38q185 0 301.5 -104t116.5 -288q0 -129 -46 -236.5t-123 -177t-175.5 -107.5t-206.5 -38q-184 0 -298.5 103t-114.5 286zM262 1014q0 -146 88.5 -225.5t233.5 -79.5q183 0 303 120h-139l-175 185h-26l-27 -185h-102 l74 531h165q222 0 222 -131q0 -165 -195 -195l205 -203q121 124 121 328q0 146 -87 225.5t-233 79.5q-85 0 -162 -29.5t-136.5 -85t-94.5 -142t-35 -193.5zM559 1104h78q63 0 97 27t34 77q0 36 -26 51t-80 15h-80z" />
<glyph unicode="&#xaf;" horiz-adv-x="1130" d="M365 1329l18 119h598l-16 -119h-600z" />
<glyph unicode="&#xb0;" horiz-adv-x="866" d="M158 1044q0 161 109 271t282 110q140 0 217.5 -72.5t77.5 -193.5q0 -162 -110.5 -272.5t-282.5 -110.5q-142 0 -217.5 72.5t-75.5 195.5zM313 1063q0 -71 42 -112.5t118 -41.5q95 0 156 65t61 165q0 71 -42 113t-118 42q-96 0 -156.5 -66t-60.5 -165z" />
<glyph unicode="&#xb1;" d="M49 0l25 180h944l-23 -180h-946zM164 819l24 180h381l56 385h180l-53 -385h383l-27 -180h-383l-53 -387h-183l56 387h-381z" />
<glyph unicode="&#xb2;" horiz-adv-x="757" d="M90 692l4 43l336 289q77 66 122.5 130t45.5 132q0 117 -172 117q-80 0 -153 -28.5t-121 -71.5l20 145q43 38 121 65t176 27q291 0 291 -207q0 -60 -21.5 -116t-63.5 -106.5t-79 -85.5t-92 -79l-144 -115h373l-18 -139h-625z" />
<glyph unicode="&#xb3;" horiz-adv-x="759" d="M86 721l20 147q69 -61 205 -61q137 0 203 40.5t66 113.5q0 54 -53 81t-177 27h-59l6 33l281 282h-402l21 138h608l-4 -35l-299 -305q120 -11 183 -56t63 -135q0 -63 -27 -119.5t-79.5 -101.5t-138.5 -71.5t-196 -26.5q-146 0 -221 49z" />
<glyph unicode="&#xb4;" horiz-adv-x="1130" d="M399 1257l277 265h196l-288 -265h-185z" />
<glyph unicode="&#xb6;" horiz-adv-x="1042" d="M152 1145q0 107 81 186.5t201 79.5h539l-197 -1411l-139 -55l186 1333h-217l-198 -1421l-140 -56l162 1157q-20 -10 -59 -10q-101 0 -160 56t-59 141z" />
<glyph unicode="&#xb7;" horiz-adv-x="1017" d="M406 680q0 62 34 96.5t95 34.5q51 0 78.5 -23t27.5 -65q0 -60 -36 -92.5t-99 -32.5q-100 0 -100 82z" />
<glyph unicode="&#xb8;" horiz-adv-x="1130" d="M184 -455l17 129q57 -63 184 -63q82 0 117 29t35 84q0 61 -95 61q-86 0 -163 -35l110 250h107l-64 -135q32 12 78 12q78 0 119 -34t41 -99q0 -116 -84 -180t-221 -64q-116 0 -181 45z" />
<glyph unicode="&#xb9;" horiz-adv-x="667" d="M135 692l19 137h188l70 500q-79 -47 -275 -47l21 133q126 0 210.5 26t147.5 85h78l-96 -697h178l-19 -137h-522z" />
<glyph unicode="&#xba;" horiz-adv-x="1077" d="M170 1008q0 131 43 237t115 171.5t161.5 100.5t188.5 35q171 0 267.5 -89.5t96.5 -262.5q0 -131 -42.5 -236.5t-113.5 -171.5t-160 -100.5t-187 -34.5q-170 0 -269.5 90t-99.5 261zM172 373l18 143h678l-20 -143h-676zM344 1022q0 -112 55 -170.5t164 -58.5 q143 0 226 104t83 287q0 233 -221 233q-143 0 -225 -105.5t-82 -289.5z" />
<glyph unicode="&#xbb;" horiz-adv-x="1134" d="M12 0q199 300 412 510q-181 250 -270 491h188q44 -124 111 -237.5t172 -253.5q-262 -251 -422 -510h-191zM442 0q199 300 412 510q-181 250 -270 491h188q44 -124 111 -237.5t172 -253.5q-262 -251 -422 -510h-191z" />
<glyph unicode="&#xbc;" horiz-adv-x="1851" d="M152 545l20 137h186l72 500q-76 -45 -274 -45l18 131q126 0 210.5 26t147.5 84h80l-98 -696h178l-18 -137h-522zM422 0l995 1374h103l-996 -1374h-102zM989 174l4 33l348 622h152l-283 -520h285l49 305h144l-43 -305h96l-19 -135h-96l-24 -174h-152l25 174h-486z" />
<glyph unicode="&#xbd;" horiz-adv-x="1871" d="M147 545l21 137h186l72 500q-76 -45 -274 -45l18 131q126 0 210.5 26t147.5 84h80l-98 -696h178l-18 -137h-523zM412 0l995 1374h102l-995 -1374h-102zM1090 0l6 43l334 289q78 69 123.5 132t45.5 130q0 119 -174 119q-79 0 -152.5 -30t-119.5 -73l21 148q45 38 121.5 65 t174.5 27q291 0 291 -209q0 -60 -22 -116t-64 -106t-79 -84.5t-91 -78.5l-143 -115h373l-19 -141h-626z" />
<glyph unicode="&#xbe;" horiz-adv-x="1841" d="M98 573l21 150q68 -64 205 -64q268 0 268 158q0 105 -230 105h-59l4 32l283 285h-402l21 135h608l-4 -35l-301 -305q122 -11 185 -55.5t63 -134.5q0 -63 -27 -119.5t-79.5 -102t-138.5 -72t-196 -26.5q-140 0 -221 49zM401 0l996 1374h102l-995 -1374h-103zM979 174l4 33 l348 622h152l-283 -520h285l49 305h143l-43 -305h97l-19 -135h-96l-25 -174h-151l24 174h-485z" />
<glyph unicode="&#xbf;" horiz-adv-x="917" d="M-12 -12q0 58 15 111t35 91t58 83t66 71.5t78 71.5q72 66 108.5 131t48.5 151l4 29h207l-4 -27q-9 -71 -29.5 -129t-55.5 -107t-68 -84t-86 -83q-80 -71 -118 -126.5t-38 -131.5q0 -67 46 -107.5t146 -40.5q104 0 208.5 53.5t158.5 135.5l-29 -217q-52 -66 -163 -109 t-236 -43q-170 0 -261 73t-91 204zM412 991q0 67 44.5 112.5t106.5 45.5q52 0 82.5 -30.5t30.5 -80.5q0 -66 -43.5 -111.5t-106.5 -45.5q-52 0 -83 30t-31 80z" />
<glyph unicode="&#xc0;" horiz-adv-x="1247" d="M-70 0l678 1241l-28 133h217l356 -1374h-219l-78 311h-559l-166 -311h-201zM379 467h438l-119 473l-18 100l-49 -100zM434 1765h199l203 -264h-189z" />
<glyph unicode="&#xc1;" horiz-adv-x="1247" d="M-70 0l678 1241l-28 133h217l356 -1374h-219l-78 311h-559l-166 -311h-201zM379 467h438l-119 473l-18 100l-49 -100zM600 1501l277 264h196l-289 -264h-184z" />
<glyph unicode="&#xc2;" horiz-adv-x="1247" d="M-70 0l678 1241l-28 133h217l356 -1374h-219l-78 311h-559l-166 -311h-201zM379 467h438l-119 473l-18 100l-49 -100zM418 1501l274 264h129l203 -264h-164l-119 144l-159 -144h-164z" />
<glyph unicode="&#xc3;" horiz-adv-x="1247" d="M-70 0l678 1241l-28 133h217l356 -1374h-219l-78 311h-559l-166 -311h-201zM379 467h438l-119 473l-18 100l-49 -100zM393 1532q17 107 80.5 163t153.5 56q34 0 66 -12t47 -22t42 -31q27 -24 45 -34t41 -10q37 0 57 25.5t29 83.5h127q-17 -108 -78.5 -163.5t-148.5 -55.5 t-156 61q-22 17 -31 24t-25 15t-30 8q-73 0 -90 -108h-129z" />
<glyph unicode="&#xc4;" horiz-adv-x="1247" d="M-70 0l678 1241l-28 133h217l356 -1374h-219l-78 311h-559l-166 -311h-201zM379 467h438l-119 473l-18 100l-49 -100zM422 1608q0 54 35.5 84t91.5 30q46 0 71 -21t25 -59q0 -55 -33 -84.5t-92 -29.5q-46 0 -72 20.5t-26 59.5zM829 1606q0 56 33.5 86t89.5 30 q46 0 72.5 -21t26.5 -59q0 -55 -34 -84.5t-93 -29.5q-45 0 -70 20t-25 58z" />
<glyph unicode="&#xc5;" horiz-adv-x="1247" d="M-70 0l678 1241l-28 133h217l356 -1374h-219l-78 311h-559l-166 -311h-201zM379 467h438l-119 473l-18 100l-49 -100zM510 1665q0 101 73.5 166t190.5 65q98 0 152.5 -46.5t54.5 -123.5q0 -101 -73.5 -166t-190.5 -65q-98 0 -152.5 46t-54.5 124zM629 1679 q0 -36 24.5 -58t77.5 -22q68 0 99.5 33.5t31.5 83.5q0 76 -102 76q-66 0 -98.5 -33t-32.5 -80z" />
<glyph unicode="&#xc6;" horiz-adv-x="1712" d="M-72 0l811 1243l-20 131h1010l-25 -180h-741l53 -401h407l-22 -166h-359l62 -447h457l-23 -180h-614l-43 311h-551l-201 -311h-201zM424 467h434l-57 467l-15 104l-55 -104z" />
<glyph unicode="&#xc7;" d="M96 516q0 173 40.5 319.5t110.5 250t164 176.5t200.5 108t219.5 35q262 0 371 -117l-33 -235q-88 174 -333 174q-111 0 -205.5 -42.5t-166.5 -124.5t-112.5 -211.5t-40.5 -293.5q0 -200 96 -304t277 -104q244 0 381 162l-29 -207q-67 -64 -172.5 -99.5t-226.5 -35.5h-8 l-51 -108q32 12 77 12q78 0 119 -34t41 -99q0 -116 -84 -180t-221 -64q-115 0 -180 45l16 129q57 -63 184 -63q82 0 117 29t35 83q0 62 -94 62q-87 0 -164 -35l102 231q-207 27 -318.5 162.5t-111.5 378.5z" />
<glyph unicode="&#xc8;" horiz-adv-x="1122" d="M80 0l190 1374h867l-25 -180h-657l-58 -401h432l-22 -166h-432l-64 -447h658l-25 -180h-864zM438 1765h199l203 -264h-189z" />
<glyph unicode="&#xc9;" horiz-adv-x="1122" d="M80 0l190 1374h867l-25 -180h-657l-58 -401h432l-22 -166h-432l-64 -447h658l-25 -180h-864zM606 1501l277 264h196l-288 -264h-185z" />
<glyph unicode="&#xca;" horiz-adv-x="1122" d="M80 0l190 1374h867l-25 -180h-657l-58 -401h432l-22 -166h-432l-64 -447h658l-25 -180h-864zM422 1501l274 264h129l203 -264h-164l-119 144l-159 -144h-164z" />
<glyph unicode="&#xcb;" horiz-adv-x="1122" d="M80 0l190 1374h867l-25 -180h-657l-58 -401h432l-22 -166h-432l-64 -447h658l-25 -180h-864zM428 1608q0 54 35.5 84t91.5 30q46 0 71 -21t25 -59q0 -55 -33 -84.5t-92 -29.5q-46 0 -72 20.5t-26 59.5zM836 1606q0 56 33.5 86t88.5 30q46 0 72.5 -21t26.5 -59 q0 -55 -34 -84.5t-93 -29.5q-45 0 -69.5 20t-24.5 58z" />
<glyph unicode="&#xcc;" horiz-adv-x="538" d="M80 0l190 1374h209l-190 -1374h-209zM106 1765h199l203 -264h-189z" />
<glyph unicode="&#xcd;" horiz-adv-x="538" d="M80 0l190 1374h209l-190 -1374h-209zM274 1501l277 264h197l-289 -264h-185z" />
<glyph unicode="&#xce;" horiz-adv-x="538" d="M80 0l190 1374h209l-190 -1374h-209zM90 1501l275 264h129l202 -264h-164l-118 144l-160 -144h-164z" />
<glyph unicode="&#xcf;" horiz-adv-x="538" d="M80 0l190 1374h209l-190 -1374h-209zM96 1608q0 54 35.5 84t91.5 30q46 0 71 -21t25 -59q0 -55 -32.5 -84.5t-91.5 -29.5q-47 0 -73 20.5t-26 59.5zM504 1606q0 56 33.5 86t89.5 30q46 0 72 -21t26 -59q0 -55 -34 -84.5t-93 -29.5q-45 0 -69.5 20t-24.5 58z" />
<glyph unicode="&#xd0;" horiz-adv-x="1368" d="M29 637l14 106h147l89 631h380q310 0 471.5 -125t161.5 -399q0 -153 -31 -280.5t-88 -219t-132.5 -160t-169.5 -109.5t-194 -61t-210 -20h-379l88 637h-147zM319 180h173q295 0 441 158t146 483q0 193 -105.5 283t-340.5 90h-170l-64 -451h275l-15 -106h-276z" />
<glyph unicode="&#xd1;" horiz-adv-x="1392" d="M80 0l176 1262l-63 112h241l570 -1009h2l141 1009h188l-192 -1374h-154l-577 1020h-4l-142 -1020h-186zM489 1563q17 107 80.5 163t153.5 56q34 0 66.5 -12t47.5 -22.5t42 -31.5q49 -43 86 -43t57 25.5t29 83.5h127q-17 -108 -79 -163.5t-149 -55.5q-86 0 -155 61 q-22 17 -31 24t-25 15t-30 8q-74 0 -91 -108h-129z" />
<glyph unicode="&#xd2;" horiz-adv-x="1492" d="M90 526q0 142 31.5 268t87 221t129.5 170t160 122.5t177 72.5t183 25q264 0 413.5 -143.5t149.5 -417.5q0 -170 -45 -315.5t-121 -247t-175 -174t-207 -106.5t-218 -34q-265 0 -415 141.5t-150 417.5zM307 559q0 -204 97.5 -309t277.5 -105q106 0 200 44t167 126.5 t116 211t43 286.5q0 203 -97.5 308.5t-276.5 105.5q-107 0 -202 -44t-167.5 -126t-115 -210.5t-42.5 -287.5zM586 1765h198l203 -264h-188z" />
<glyph unicode="&#xd3;" horiz-adv-x="1492" d="M90 526q0 142 31.5 268t87 221t129.5 170t160 122.5t177 72.5t183 25q264 0 413.5 -143.5t149.5 -417.5q0 -170 -45 -315.5t-121 -247t-175 -174t-207 -106.5t-218 -34q-265 0 -415 141.5t-150 417.5zM307 559q0 -204 97.5 -309t277.5 -105q106 0 200 44t167 126.5 t116 211t43 286.5q0 203 -97.5 308.5t-276.5 105.5q-107 0 -202 -44t-167.5 -126t-115 -210.5t-42.5 -287.5zM754 1501l276 264h197l-289 -264h-184z" />
<glyph unicode="&#xd4;" horiz-adv-x="1492" d="M90 526q0 142 31.5 268t87 221t129.5 170t160 122.5t177 72.5t183 25q264 0 413.5 -143.5t149.5 -417.5q0 -170 -45 -315.5t-121 -247t-175 -174t-207 -106.5t-218 -34q-265 0 -415 141.5t-150 417.5zM307 559q0 -204 97.5 -309t277.5 -105q106 0 200 44t167 126.5 t116 211t43 286.5q0 203 -97.5 308.5t-276.5 105.5q-107 0 -202 -44t-167.5 -126t-115 -210.5t-42.5 -287.5zM569 1501l275 264h129l203 -264h-164l-119 144l-160 -144h-164z" />
<glyph unicode="&#xd5;" horiz-adv-x="1492" d="M90 526q0 142 31.5 268t87 221t129.5 170t160 122.5t177 72.5t183 25q264 0 413.5 -143.5t149.5 -417.5q0 -170 -45 -315.5t-121 -247t-175 -174t-207 -106.5t-218 -34q-265 0 -415 141.5t-150 417.5zM307 559q0 -204 97.5 -309t277.5 -105q106 0 200 44t167 126.5 t116 211t43 286.5q0 203 -97.5 308.5t-276.5 105.5q-107 0 -202 -44t-167.5 -126t-115 -210.5t-42.5 -287.5zM547 1532q17 107 80 163t153 56q34 0 66.5 -11.5t48 -22.5t41.5 -31q27 -24 45 -34t41 -10q37 0 57 25.5t29 83.5h127q-17 -108 -78.5 -163.5t-148.5 -55.5 t-156 61q-22 17 -31 24t-25 15t-30 8q-73 0 -90 -108h-129z" />
<glyph unicode="&#xd6;" horiz-adv-x="1492" d="M90 526q0 142 31.5 268t87 221t129.5 170t160 122.5t177 72.5t183 25q264 0 413.5 -143.5t149.5 -417.5q0 -170 -45 -315.5t-121 -247t-175 -174t-207 -106.5t-218 -34q-265 0 -415 141.5t-150 417.5zM307 559q0 -204 97.5 -309t277.5 -105q106 0 200 44t167 126.5 t116 211t43 286.5q0 203 -97.5 308.5t-276.5 105.5q-107 0 -202 -44t-167.5 -126t-115 -210.5t-42.5 -287.5zM573 1608q0 54 35.5 84t91.5 30q46 0 71.5 -21t25.5 -59q0 -55 -33 -84.5t-92 -29.5q-47 0 -73 20.5t-26 59.5zM981 1606q0 56 33.5 86t89.5 30q46 0 72 -21 t26 -59q0 -55 -34 -84.5t-93 -29.5q-45 0 -69.5 20t-24.5 58z" />
<glyph unicode="&#xd7;" horiz-adv-x="1028" d="M92 451l307 270l-233 272l145 127l234 -274l309 272l111 -127l-312 -270l236 -275l-146 -127l-233 275l-309 -270z" />
<glyph unicode="&#xd8;" horiz-adv-x="1497" d="M-18 0l196 190q-84 131 -84 336q0 142 31.5 268t87 221t129.5 170t160 122.5t177 72.5t183 25q268 0 416 -145l121 116h139l-199 -194q86 -134 86 -338q0 -170 -45 -315.5t-121 -247t-175 -174t-207 -106.5t-218 -34q-273 0 -419 146l-117 -113h-141zM311 559 q0 -120 35 -207l778 758q-99 117 -286 117q-107 0 -202 -44t-167.5 -126t-115 -210.5t-42.5 -287.5zM395 264q98 -119 291 -119q106 0 200 44t167 126.5t116 211t43 286.5q0 120 -36 209z" />
<glyph unicode="&#xd9;" horiz-adv-x="1431" d="M139 340.5q-13 101.5 8 234.5l113 799h209l-115 -803q-31 -222 45 -324t254 -102q176 0 281 102.5t135 323.5l113 803h204l-110 -799q-22 -156 -81.5 -274.5t-148.5 -190.5t-197 -107.5t-235 -35.5q-104 0 -184.5 20.5t-144 65t-98.5 115.5t-48 172.5zM557 1765h199 l202 -264h-188z" />
<glyph unicode="&#xda;" horiz-adv-x="1431" d="M139 340.5q-13 101.5 8 234.5l113 799h209l-115 -803q-31 -222 45 -324t254 -102q176 0 281 102.5t135 323.5l113 803h204l-110 -799q-22 -156 -81.5 -274.5t-148.5 -190.5t-197 -107.5t-235 -35.5q-104 0 -184.5 20.5t-144 65t-98.5 115.5t-48 172.5zM725 1501l276 264 h197l-289 -264h-184z" />
<glyph unicode="&#xdb;" horiz-adv-x="1431" d="M139 340.5q-13 101.5 8 234.5l113 799h209l-115 -803q-31 -222 45 -324t254 -102q176 0 281 102.5t135 323.5l113 803h204l-110 -799q-22 -156 -81.5 -274.5t-148.5 -190.5t-197 -107.5t-235 -35.5q-104 0 -184.5 20.5t-144 65t-98.5 115.5t-48 172.5zM541 1501l274 264 h129l203 -264h-164l-119 144l-159 -144h-164z" />
<glyph unicode="&#xdc;" horiz-adv-x="1431" d="M139 340.5q-13 101.5 8 234.5l113 799h209l-115 -803q-31 -222 45 -324t254 -102q176 0 281 102.5t135 323.5l113 803h204l-110 -799q-22 -156 -81.5 -274.5t-148.5 -190.5t-197 -107.5t-235 -35.5q-104 0 -184.5 20.5t-144 65t-98.5 115.5t-48 172.5zM545 1608 q0 54 35.5 84t91.5 30q46 0 71 -21t25 -59q0 -55 -33 -84.5t-92 -29.5q-46 0 -72 20.5t-26 59.5zM952 1606q0 56 33.5 86t89.5 30q46 0 72.5 -21t26.5 -59q0 -55 -34 -84.5t-93 -29.5q-45 0 -70 20t-25 58z" />
<glyph unicode="&#xdd;" horiz-adv-x="1144" d="M113 1374h231l256 -608l434 608h207l-571 -788l-82 -586h-209l82 586zM571 1501l277 264h196l-288 -264h-185z" />
<glyph unicode="&#xde;" horiz-adv-x="1163" d="M80 0l190 1374h209l-28 -215h174q260 0 381.5 -87.5t121.5 -260.5q0 -124 -39 -228t-115.5 -183t-198.5 -123t-279 -44h-101l23 162h98q194 0 295.5 99t101.5 272q0 114 -76 170.5t-237 56.5h-174l-137 -993h-209z" />
<glyph unicode="&#xdf;" horiz-adv-x="1208" d="M6 -391l211 1515q19 137 95 235.5t186 145.5t243 47q195 0 299.5 -82t104.5 -229q0 -177 -100 -291.5t-254 -148.5v-4q137 -16 223 -98.5t86 -221.5q0 -227 -145 -368.5t-365 -141.5q-67 0 -125 18.5t-80 41.5l27 184q25 -33 71 -54.5t107 -21.5q129 0 214 87t85 235 q0 114 -85 172.5t-245 60.5l25 172q155 6 249.5 95t94.5 235q0 96 -57.5 147.5t-155.5 51.5q-118 0 -195.5 -66.5t-97.5 -200.5l-211 -1515h-205z" />
<glyph unicode="&#xe0;" d="M74 446q0 313 154.5 507t389.5 194q95 0 164 -35t105 -98l26 100h166l-123 -870q-7 -52 9 -73t53 -21q60 0 108 67l-24 -180q-18 -20 -58.5 -37.5t-97.5 -17.5q-84 0 -130 41.5t-52 119.5q-29 -72 -110 -124t-197 -52q-181 0 -282 123t-101 356zM285 459 q0 -152 57.5 -238t173.5 -86q95 0 158 49t90 125l80 565q-24 48 -74 79.5t-121 31.5q-120 0 -203.5 -71.5t-122 -187.5t-38.5 -267zM422 1522h199l202 -265h-188z" />
<glyph unicode="&#xe1;" d="M74 446q0 313 154.5 507t389.5 194q95 0 164 -35t105 -98l26 100h166l-123 -870q-7 -52 9 -73t53 -21q60 0 108 67l-24 -180q-18 -20 -58.5 -37.5t-97.5 -17.5q-84 0 -130 41.5t-52 119.5q-29 -72 -110 -124t-197 -52q-181 0 -282 123t-101 356zM285 459 q0 -152 57.5 -238t173.5 -86q95 0 158 49t90 125l80 565q-24 48 -74 79.5t-121 31.5q-120 0 -203.5 -71.5t-122 -187.5t-38.5 -267zM588 1257l276 265h197l-289 -265h-184z" />
<glyph unicode="&#xe2;" d="M74 446q0 313 154.5 507t389.5 194q95 0 164 -35t105 -98l26 100h166l-123 -870q-7 -52 9 -73t53 -21q60 0 108 67l-24 -180q-18 -20 -58.5 -37.5t-97.5 -17.5q-84 0 -130 41.5t-52 119.5q-29 -72 -110 -124t-197 -52q-181 0 -282 123t-101 356zM285 459 q0 -152 57.5 -238t173.5 -86q95 0 158 49t90 125l80 565q-24 48 -74 79.5t-121 31.5q-120 0 -203.5 -71.5t-122 -187.5t-38.5 -267zM403 1257l275 265h129l203 -265h-164l-119 144l-160 -144h-164z" />
<glyph unicode="&#xe3;" d="M74 446q0 313 154.5 507t389.5 194q95 0 164 -35t105 -98l26 100h166l-123 -870q-7 -52 9 -73t53 -21q60 0 108 67l-24 -180q-18 -20 -58.5 -37.5t-97.5 -17.5q-84 0 -130 41.5t-52 119.5q-29 -72 -110 -124t-197 -52q-181 0 -282 123t-101 356zM285 459 q0 -152 57.5 -238t173.5 -86q95 0 158 49t90 125l80 565q-24 48 -74 79.5t-121 31.5q-120 0 -203.5 -71.5t-122 -187.5t-38.5 -267zM381 1288q17 107 80 163t153 56q34 0 66.5 -11.5t48 -22.5t41.5 -31q49 -43 86 -43t57 25t29 83h127q-17 -108 -78.5 -163.5t-148.5 -55.5 q-86 0 -156 62q-22 17 -31 24t-25 15t-30 8q-73 0 -90 -109h-129z" />
<glyph unicode="&#xe4;" d="M74 446q0 313 154.5 507t389.5 194q95 0 164 -35t105 -98l26 100h166l-123 -870q-7 -52 9 -73t53 -21q60 0 108 67l-24 -180q-18 -20 -58.5 -37.5t-97.5 -17.5q-84 0 -130 41.5t-52 119.5q-29 -72 -110 -124t-197 -52q-181 0 -282 123t-101 356zM285 459 q0 -152 57.5 -238t173.5 -86q95 0 158 49t90 125l80 565q-24 48 -74 79.5t-121 31.5q-120 0 -203.5 -71.5t-122 -187.5t-38.5 -267zM410 1364q0 54 35.5 84.5t91.5 30.5q46 0 71 -21t25 -59q0 -55 -33 -85t-92 -30q-46 0 -72 20.5t-26 59.5zM817 1362q0 56 34 86.5t89 30.5 q46 0 72 -21t26 -59q0 -55 -34 -85t-93 -30q-45 0 -69.5 20t-24.5 58z" />
<glyph unicode="&#xe5;" d="M74 446q0 313 154.5 507t389.5 194q95 0 164 -35t105 -98l26 100h166l-123 -870q-7 -52 9 -73t53 -21q60 0 108 67l-24 -180q-18 -20 -58.5 -37.5t-97.5 -17.5q-84 0 -130 41.5t-52 119.5q-29 -72 -110 -124t-197 -52q-181 0 -282 123t-101 356zM285 459 q0 -152 57.5 -238t173.5 -86q95 0 158 49t90 125l80 565q-24 48 -74 79.5t-121 31.5q-120 0 -203.5 -71.5t-122 -187.5t-38.5 -267zM498 1421q0 101 73.5 166.5t190.5 65.5q98 0 152.5 -46.5t54.5 -123.5q0 -101 -73.5 -166.5t-190.5 -65.5q-98 0 -152.5 46t-54.5 124z M616 1436q0 -35 25 -57.5t78 -22.5q68 0 99.5 33.5t31.5 83.5q0 75 -102 75q-66 0 -99 -32.5t-33 -79.5z" />
<glyph unicode="&#xe6;" horiz-adv-x="1695" d="M61 266q0 76 27 136.5t71.5 100t114 70t140.5 48t166 32.5l159 27q25 162 -35 230.5t-192 68.5q-114 0 -207 -59t-145 -152l28 215q48 65 141.5 114.5t239.5 49.5q267 0 308 -223q60 106 168.5 164.5t214.5 58.5q174 0 270 -87.5t96 -246.5q0 -172 -137.5 -279.5 t-372.5 -107.5q-114 0 -201 27v-33q0 -121 77.5 -201t213.5 -80q218 0 334 164l-27 -203q-38 -54 -124.5 -93.5t-214.5 -39.5q-270 0 -377 197q-54 -84 -158 -140.5t-238 -56.5q-149 0 -244.5 80t-95.5 219zM266 281q0 -78 49 -119t140 -41q90 0 169.5 45.5t118.5 105.5 q-26 102 -26 197q0 42 4 74l-146 -31q-173 -35 -241 -83t-68 -148zM920 594q75 -23 155 -23q170 0 258 60t88 174q0 81 -47 127.5t-139 46.5q-121 0 -211 -101.5t-104 -283.5z" />
<glyph unicode="&#xe7;" horiz-adv-x="1001" d="M78 451q0 140 33 256.5t90 197t135 136t166.5 81t185.5 25.5q183 0 279 -103l-33 -217q-92 144 -268 144q-169 0 -272 -137.5t-103 -376.5q0 -157 64.5 -234.5t197.5 -77.5q183 0 315 148l-30 -211q-49 -49 -131.5 -81.5t-186.5 -33.5l-49 -106q32 12 78 12q78 0 119 -34 t41 -99q0 -116 -84.5 -180t-221.5 -64q-115 0 -180 45l17 129q57 -63 184 -63q82 0 116.5 29t34.5 83q0 62 -94 62q-87 0 -164 -35l101 229q-163 25 -251.5 145.5t-88.5 330.5z" />
<glyph unicode="&#xe8;" horiz-adv-x="1077" d="M76 469q0 154 46 284t124 215t179.5 132t213.5 47q174 0 271.5 -87.5t97.5 -246.5q0 -172 -137.5 -279.5t-374.5 -107.5q-123 0 -199 27q-2 -12 -2 -31q0 -125 77.5 -204t213.5 -79q223 0 334 164l-27 -203q-38 -54 -125 -93.5t-213 -39.5q-225 0 -352 128t-127 374z M299 594q64 -23 156 -23q171 0 259.5 60t88.5 174q0 81 -47 127.5t-140 46.5q-122 0 -211 -101.5t-106 -283.5zM360 1522h199l203 -265h-189z" />
<glyph unicode="&#xe9;" horiz-adv-x="1077" d="M76 469q0 154 46 284t124 215t179.5 132t213.5 47q174 0 271.5 -87.5t97.5 -246.5q0 -172 -137.5 -279.5t-374.5 -107.5q-123 0 -199 27q-2 -12 -2 -31q0 -125 77.5 -204t213.5 -79q223 0 334 164l-27 -203q-38 -54 -125 -93.5t-213 -39.5q-225 0 -352 128t-127 374z M299 594q64 -23 156 -23q171 0 259.5 60t88.5 174q0 81 -47 127.5t-140 46.5q-122 0 -211 -101.5t-106 -283.5zM528 1257l277 265h196l-288 -265h-185z" />
<glyph unicode="&#xea;" horiz-adv-x="1077" d="M76 469q0 154 46 284t124 215t179.5 132t213.5 47q174 0 271.5 -87.5t97.5 -246.5q0 -172 -137.5 -279.5t-374.5 -107.5q-123 0 -199 27q-2 -12 -2 -31q0 -125 77.5 -204t213.5 -79q223 0 334 164l-27 -203q-38 -54 -125 -93.5t-213 -39.5q-225 0 -352 128t-127 374z M299 594q64 -23 156 -23q171 0 259.5 60t88.5 174q0 81 -47 127.5t-140 46.5q-122 0 -211 -101.5t-106 -283.5zM344 1257l274 265h130l202 -265h-164l-118 144l-160 -144h-164z" />
<glyph unicode="&#xeb;" horiz-adv-x="1077" d="M76 469q0 154 46 284t124 215t179.5 132t213.5 47q174 0 271.5 -87.5t97.5 -246.5q0 -172 -137.5 -279.5t-374.5 -107.5q-123 0 -199 27q-2 -12 -2 -31q0 -125 77.5 -204t213.5 -79q223 0 334 164l-27 -203q-38 -54 -125 -93.5t-213 -39.5q-225 0 -352 128t-127 374z M299 594q64 -23 156 -23q171 0 259.5 60t88.5 174q0 81 -47 127.5t-140 46.5q-122 0 -211 -101.5t-106 -283.5zM348 1364q0 54 35.5 84.5t91.5 30.5q46 0 71 -21t25 -59q0 -55 -33 -85t-92 -30q-46 0 -72 20.5t-26 59.5zM756 1362q0 56 34 86.5t89 30.5q46 0 72 -21t26 -59 q0 -55 -34 -85t-93 -30q-45 0 -69.5 20t-24.5 58z" />
<glyph unicode="&#xec;" horiz-adv-x="595" d="M92 1522h199l203 -265h-189zM119 948l24 168h320l-133 -876q-7 -47 7 -68.5t52 -21.5q63 0 111 67l-25 -180q-55 -55 -162 -55q-109 0 -157.5 66.5t-28.5 191.5l113 708h-121z" />
<glyph unicode="&#xed;" horiz-adv-x="595" d="M119 948l24 168h320l-133 -876q-7 -47 7 -68.5t52 -21.5q63 0 111 67l-25 -180q-55 -55 -162 -55q-109 0 -157.5 66.5t-28.5 191.5l113 708h-121zM260 1257l277 265h196l-289 -265h-184z" />
<glyph unicode="&#xee;" horiz-adv-x="595" d="M76 1257l274 265h129l203 -265h-164l-119 144l-159 -144h-164zM119 948l24 168h320l-133 -876q-7 -47 7 -68.5t52 -21.5q63 0 111 67l-25 -180q-55 -55 -162 -55q-109 0 -157.5 66.5t-28.5 191.5l113 708h-121z" />
<glyph unicode="&#xef;" horiz-adv-x="595" d="M80 1364q0 54 35.5 84.5t91.5 30.5q46 0 71 -21t25 -59q0 -55 -33 -85t-92 -30q-46 0 -72 20.5t-26 59.5zM119 948l24 168h320l-133 -876q-7 -47 7 -68.5t52 -21.5q63 0 111 67l-25 -180q-55 -55 -162 -55q-109 0 -157.5 66.5t-28.5 191.5l113 708h-121zM487 1362 q0 56 34 86.5t89 30.5q46 0 72.5 -21t26.5 -59q0 -55 -34 -85t-93 -30q-45 0 -70 20t-25 58z" />
<glyph unicode="&#xf0;" horiz-adv-x="1171" d="M68 403q0 124 34 232t89.5 182.5t126 128.5t144.5 79.5t144 25.5q96 0 161.5 -37.5t94.5 -95.5l4 2q-59 239 -200 370l-152 -112h-131l223 163q-133 105 -297 172v9h258q91 -41 164 -95l123 95h129l-190 -140q142 -123 215 -301t73 -399q0 -139 -35 -257.5t-94 -201.5 t-136.5 -141.5t-162 -86.5t-170.5 -28q-188 0 -301.5 113.5t-113.5 322.5zM279 432q0 -134 62.5 -214.5t174.5 -80.5q101 0 181 61.5t124.5 168t44.5 237.5q0 133 -62.5 213t-174.5 80q-150 0 -250 -134.5t-100 -330.5z" />
<glyph unicode="&#xf1;" horiz-adv-x="1216" d="M59 0l156 1116h191l-5 -145q43 76 129.5 126t198.5 50q209 0 287.5 -127t36.5 -361l-76 -419q-17 -90 51 -90q59 0 111 67l-25 -180q-48 -55 -153 -55q-107 0 -157.5 67t-27.5 191l68 381q35 196 -8 281t-174 85q-101 0 -177.5 -58.5t-109.5 -137.5l-111 -791h-205z M356 1288q17 107 80.5 163t153.5 56q34 0 66 -12t47 -22t42 -31q49 -43 86 -43t57.5 25t29.5 83h126q-17 -108 -78.5 -163.5t-148.5 -55.5q-85 0 -155 62q-58 47 -87 47q-73 0 -90 -109h-129z" />
<glyph unicode="&#xf2;" horiz-adv-x="1175" d="M72 430q0 142 33 261t90 202t133 141t161.5 85.5t176.5 27.5q194 0 306.5 -115.5t112.5 -345.5q0 -143 -32.5 -263t-88 -203t-131 -141t-160.5 -85t-177 -27q-195 0 -309.5 115.5t-114.5 347.5zM281 440q0 -148 60.5 -226.5t180.5 -78.5q157 0 256 147.5t99 385.5 q0 311 -240 311q-157 0 -256.5 -149t-99.5 -390zM414 1522h198l203 -265h-188z" />
<glyph unicode="&#xf3;" horiz-adv-x="1175" d="M72 430q0 142 33 261t90 202t133 141t161.5 85.5t176.5 27.5q194 0 306.5 -115.5t112.5 -345.5q0 -143 -32.5 -263t-88 -203t-131 -141t-160.5 -85t-177 -27q-195 0 -309.5 115.5t-114.5 347.5zM281 440q0 -148 60.5 -226.5t180.5 -78.5q157 0 256 147.5t99 385.5 q0 311 -240 311q-157 0 -256.5 -149t-99.5 -390zM580 1257l276 265h197l-289 -265h-184z" />
<glyph unicode="&#xf4;" horiz-adv-x="1175" d="M72 430q0 142 33 261t90 202t133 141t161.5 85.5t176.5 27.5q194 0 306.5 -115.5t112.5 -345.5q0 -143 -32.5 -263t-88 -203t-131 -141t-160.5 -85t-177 -27q-195 0 -309.5 115.5t-114.5 347.5zM281 440q0 -148 60.5 -226.5t180.5 -78.5q157 0 256 147.5t99 385.5 q0 311 -240 311q-157 0 -256.5 -149t-99.5 -390zM397 1257l275 265h129l203 -265h-164l-119 144l-160 -144h-164z" />
<glyph unicode="&#xf5;" horiz-adv-x="1175" d="M72 430q0 142 33 261t90 202t133 141t161.5 85.5t176.5 27.5q194 0 306.5 -115.5t112.5 -345.5q0 -143 -32.5 -263t-88 -203t-131 -141t-160.5 -85t-177 -27q-195 0 -309.5 115.5t-114.5 347.5zM281 440q0 -148 60.5 -226.5t180.5 -78.5q157 0 256 147.5t99 385.5 q0 311 -240 311q-157 0 -256.5 -149t-99.5 -390zM373 1288q17 107 80 163t153 56q34 0 66.5 -11.5t48 -22.5t41.5 -31q49 -43 86 -43t57 25t29 83h127q-17 -108 -78.5 -163.5t-148.5 -55.5q-86 0 -156 62q-22 17 -31 24t-25 15t-30 8q-73 0 -90 -109h-129z" />
<glyph unicode="&#xf6;" horiz-adv-x="1175" d="M72 430q0 142 33 261t90 202t133 141t161.5 85.5t176.5 27.5q194 0 306.5 -115.5t112.5 -345.5q0 -143 -32.5 -263t-88 -203t-131 -141t-160.5 -85t-177 -27q-195 0 -309.5 115.5t-114.5 347.5zM281 440q0 -148 60.5 -226.5t180.5 -78.5q157 0 256 147.5t99 385.5 q0 311 -240 311q-157 0 -256.5 -149t-99.5 -390zM401 1364q0 54 35.5 84.5t91.5 30.5q46 0 71.5 -21t25.5 -59q0 -55 -33 -85t-92 -30q-47 0 -73 20.5t-26 59.5zM809 1362q0 56 34 86.5t89 30.5q46 0 72 -21t26 -59q0 -55 -34 -85t-93 -30q-45 0 -69.5 20t-24.5 58z" />
<glyph unicode="&#xf7;" horiz-adv-x="1128" d="M100 621l25 180h928l-25 -180h-928zM395 326q0 66 44.5 111.5t107.5 45.5q51 0 81.5 -31t30.5 -81q0 -67 -43 -111.5t-108 -44.5q-52 0 -82.5 30.5t-30.5 80.5zM498 1047q0 67 43 113t106 46q52 0 83.5 -31.5t31.5 -82.5q0 -65 -45 -109.5t-107 -44.5q-52 0 -82 29.5 t-30 79.5z" />
<glyph unicode="&#xf8;" horiz-adv-x="1187" d="M-43 0l172 170q-53 103 -53 260q0 142 33 261t90 202t133 141t161.5 85.5t176.5 27.5q203 0 317 -129l98 98h140l-185 -182q50 -110 50 -248q0 -143 -32.5 -263t-88.5 -203t-131.5 -141t-160.5 -85t-177 -27q-204 0 -314 119l-86 -86h-143zM285 440q0 -64 8 -108l547 540 q-60 107 -199 107q-157 0 -256.5 -149t-99.5 -390zM334 231q59 -96 192 -96q157 0 256 147.5t99 385.5q0 54 -9 98z" />
<glyph unicode="&#xf9;" horiz-adv-x="1255" d="M104 948l27 168h330l-105 -653q-27 -172 14.5 -254t170.5 -82q96 0 167.5 58.5t104.5 138.5l113 792h202l-122 -876q-6 -48 9.5 -69t51.5 -21q61 0 109 67l-25 -180q-18 -20 -58 -37.5t-98 -17.5q-86 0 -135 43t-55 127q-36 -76 -125.5 -130.5t-198.5 -54.5 q-196 0 -281 118.5t-50 338.5l86 524h-132zM422 1522h199l202 -265h-188z" />
<glyph unicode="&#xfa;" horiz-adv-x="1255" d="M104 948l27 168h330l-105 -653q-27 -172 14.5 -254t170.5 -82q96 0 167.5 58.5t104.5 138.5l113 792h202l-122 -876q-6 -48 9.5 -69t51.5 -21q61 0 109 67l-25 -180q-18 -20 -58 -37.5t-98 -17.5q-86 0 -135 43t-55 127q-36 -76 -125.5 -130.5t-198.5 -54.5 q-196 0 -281 118.5t-50 338.5l86 524h-132zM590 1257l276 265h197l-289 -265h-184z" />
<glyph unicode="&#xfb;" horiz-adv-x="1255" d="M104 948l27 168h330l-105 -653q-27 -172 14.5 -254t170.5 -82q96 0 167.5 58.5t104.5 138.5l113 792h202l-122 -876q-6 -48 9.5 -69t51.5 -21q61 0 109 67l-25 -180q-18 -20 -58 -37.5t-98 -17.5q-86 0 -135 43t-55 127q-36 -76 -125.5 -130.5t-198.5 -54.5 q-196 0 -281 118.5t-50 338.5l86 524h-132zM406 1257l274 265h129l203 -265h-164l-119 144l-160 -144h-163z" />
<glyph unicode="&#xfc;" horiz-adv-x="1255" d="M104 948l27 168h330l-105 -653q-27 -172 14.5 -254t170.5 -82q96 0 167.5 58.5t104.5 138.5l113 792h202l-122 -876q-6 -48 9.5 -69t51.5 -21q61 0 109 67l-25 -180q-18 -20 -58 -37.5t-98 -17.5q-86 0 -135 43t-55 127q-36 -76 -125.5 -130.5t-198.5 -54.5 q-196 0 -281 118.5t-50 338.5l86 524h-132zM410 1364q0 54 35.5 84.5t91.5 30.5q46 0 71 -21t25 -59q0 -55 -33 -85t-92 -30q-46 0 -72 20.5t-26 59.5zM817 1362q0 56 34 86.5t89 30.5q46 0 72 -21t26 -59q0 -55 -34 -85t-93 -30q-45 0 -69.5 20t-24.5 58z" />
<glyph unicode="&#xfd;" d="M43 -276l41 206q36 -80 132 -133t212 -53q164 0 245.5 79t106.5 261l17 123q-34 -71 -119 -116.5t-184 -45.5q-196 0 -281.5 118t-50.5 339l74 446h-136l25 168h336l-92 -575q-27 -173 14.5 -254.5t169.5 -81.5q97 0 168 57.5t102 136.5l101 717h204l-147 -1057 q-34 -246 -170.5 -364.5t-400.5 -118.5q-126 0 -226 41.5t-141 106.5zM569 1257l277 265h196l-288 -265h-185z" />
<glyph unicode="&#xfe;" horiz-adv-x="1183" d="M6 -391l268 1913h203l-67 -523q35 59 113.5 104.5t187.5 45.5q385 0 385 -467q0 -161 -43.5 -296.5t-118.5 -226.5t-176.5 -141.5t-216.5 -50.5q-85 0 -156.5 34.5t-105.5 90.5l-70 -483h-203zM301 262q30 -65 89 -98t136 -33q114 0 197 71.5t122.5 190t39.5 269.5 q0 163 -54.5 241t-185.5 78q-95 0 -166.5 -57t-103.5 -138z" />
<glyph unicode="&#xff;" d="M43 -276l41 206q36 -80 132 -133t212 -53q164 0 245.5 79t106.5 261l17 123q-34 -71 -119 -116.5t-184 -45.5q-196 0 -281.5 118t-50.5 339l74 446h-136l25 168h336l-92 -575q-27 -173 14.5 -254.5t169.5 -81.5q97 0 168 57.5t102 136.5l101 717h204l-147 -1057 q-34 -246 -170.5 -364.5t-400.5 -118.5q-126 0 -226 41.5t-141 106.5zM389 1364q0 54 35.5 84.5t91.5 30.5q46 0 71 -21t25 -59q0 -55 -33 -85t-92 -30q-46 0 -72 20.5t-26 59.5zM797 1362q0 56 34 86.5t89 30.5q46 0 72 -21t26 -59q0 -55 -34 -85t-93 -30q-45 0 -69.5 20 t-24.5 58z" />
<glyph unicode="&#x152;" horiz-adv-x="2148" d="M90 524q0 170 45 316.5t120 248.5t173 174.5t203 107t211 34.5q334 0 424 -244l30 213h865l-25 -180h-657l-56 -401h432l-22 -166h-432l-64 -447h656l-23 -180h-866l31 236q-84 -132 -214.5 -200.5t-281.5 -68.5q-255 0 -402 141.5t-147 415.5zM307 559q0 -204 97.5 -309 t277.5 -105q106 0 200 44t167 126.5t116 211t43 286.5q0 203 -97.5 308.5t-276.5 105.5q-107 0 -202 -44t-167.5 -126t-115 -210.5t-42.5 -287.5z" />
<glyph unicode="&#x153;" horiz-adv-x="1869" d="M72 430q0 142 33 261t90 202t133 141t161.5 85.5t176.5 27.5q282 0 354 -264q59 130 167.5 197t233.5 67q174 0 270.5 -87.5t96.5 -246.5q0 -172 -136.5 -279.5t-373.5 -107.5q-122 0 -201 27v-31q0 -126 78 -204.5t219 -78.5q221 0 359 178l-27 -200 q-49 -59 -139 -104.5t-224 -45.5q-160 0 -267 65t-154 214q-64 -146 -176 -212.5t-250 -66.5q-195 0 -309.5 115.5t-114.5 347.5zM283 440q0 -148 59.5 -226.5t179.5 -78.5q157 0 256 146.5t99 380.5q0 317 -240 317q-157 0 -255.5 -149t-98.5 -390zM1081 594 q64 -23 156 -23q170 0 259 60t89 174q0 81 -47 127.5t-141 46.5q-120 0 -211 -102t-105 -283z" />
<glyph unicode="&#x178;" horiz-adv-x="1144" d="M113 1374h231l256 -608l434 608h207l-571 -788l-82 -586h-209l82 586zM391 1608q0 54 35.5 84t91.5 30q46 0 71 -21t25 -59q0 -55 -33 -84.5t-92 -29.5q-46 0 -72 20.5t-26 59.5zM799 1606q0 56 33.5 86t89.5 30q46 0 72 -21t26 -59q0 -55 -34 -84.5t-93 -29.5 q-45 0 -69.5 20t-24.5 58z" />
<glyph unicode="&#x2c6;" horiz-adv-x="1130" d="M352 1257l275 265h129l202 -265h-163l-119 144l-160 -144h-164z" />
<glyph unicode="&#x2dc;" horiz-adv-x="1130" d="M332 1288q17 107 80 163t153 56q34 0 66.5 -11.5t48 -22.5t41.5 -31q49 -43 86 -43t57 25t29 83h127q-17 -108 -78.5 -163.5t-148.5 -55.5q-86 0 -156 62q-22 17 -31 24t-25 15t-30 8q-73 0 -90 -109h-129z" />
<glyph unicode="&#x2000;" horiz-adv-x="948" />
<glyph unicode="&#x2001;" horiz-adv-x="1896" />
<glyph unicode="&#x2002;" horiz-adv-x="948" />
<glyph unicode="&#x2003;" horiz-adv-x="1896" />
<glyph unicode="&#x2004;" horiz-adv-x="632" />
<glyph unicode="&#x2005;" horiz-adv-x="474" />
<glyph unicode="&#x2006;" horiz-adv-x="316" />
<glyph unicode="&#x2007;" horiz-adv-x="316" />
<glyph unicode="&#x2008;" horiz-adv-x="237" />
<glyph unicode="&#x2009;" horiz-adv-x="379" />
<glyph unicode="&#x200a;" horiz-adv-x="105" />
<glyph unicode="&#x2010;" horiz-adv-x="776" d="M113 535l24 174h525l-23 -174h-526z" />
<glyph unicode="&#x2011;" horiz-adv-x="776" d="M113 535l24 174h525l-23 -174h-526z" />
<glyph unicode="&#x2012;" horiz-adv-x="776" d="M113 535l24 174h525l-23 -174h-526z" />
<glyph unicode="&#x2013;" horiz-adv-x="1409" d="M111 541l22 164h1163l-22 -164h-1163z" />
<glyph unicode="&#x2014;" horiz-adv-x="1863" d="M115 541l22 164h1612l-23 -164h-1611z" />
<glyph unicode="&#x2018;" horiz-adv-x="458" d="M180 1116q0 69 41 153t87.5 141.5t86.5 92.5l88 -16q-33 -46 -66 -116.5t-46 -129.5q55 -25 55 -90q0 -61 -42 -100t-101 -39q-49 0 -76 27t-27 77z" />
<glyph unicode="&#x2019;" horiz-adv-x="452" d="M166 1024q33 46 66.5 117t46.5 129q-56 26 -56 90q0 61 42.5 100t101.5 39q49 0 75.5 -27t26.5 -77q0 -69 -41 -153t-87.5 -141.5t-86.5 -92.5z" />
<glyph unicode="&#x201a;" horiz-adv-x="458" d="M-23 -260q33 46 66.5 117t46.5 129q-55 25 -55 90q0 61 42 100t101 39q49 0 76 -27t27 -77q0 -69 -41 -153t-87.5 -141.5t-86.5 -92.5z" />
<glyph unicode="&#x201c;" horiz-adv-x="774" d="M180 1116q0 69 41 153t87.5 141.5t86.5 92.5l88 -16q-33 -46 -66 -116.5t-46 -129.5q55 -25 55 -90q0 -61 -42 -100t-101 -39q-49 0 -76 27t-27 77zM496 1116q0 69 41 153t87.5 141.5t86.5 92.5l88 -16q-33 -46 -66.5 -117t-46.5 -129q55 -25 55 -90q0 -61 -42 -100 t-101 -39q-49 0 -75.5 27t-26.5 77z" />
<glyph unicode="&#x201d;" horiz-adv-x="765" d="M166 1024q33 46 66.5 117t46.5 129q-56 26 -56 90q0 61 42.5 100t101.5 39q49 0 75.5 -27t26.5 -77q0 -69 -41 -153t-87.5 -141.5t-86.5 -92.5zM479 1024q33 46 66.5 117t46.5 129q-55 25 -55 90q0 61 42 100t101 39q49 0 75.5 -27t26.5 -77q0 -69 -41 -153t-87.5 -141.5 t-86.5 -92.5z" />
<glyph unicode="&#x201e;" horiz-adv-x="770" d="M-23 -260q33 46 66.5 117t46.5 129q-55 25 -55 90q0 61 42 100t101 39q49 0 76 -27t27 -77q0 -69 -41 -153t-87.5 -141.5t-86.5 -92.5zM291 -260q33 46 66 116.5t46 129.5q-55 25 -55 90q0 61 42.5 100t101.5 39q49 0 75.5 -27t26.5 -77q0 -69 -41 -153t-87.5 -141.5 t-86.5 -92.5z" />
<glyph unicode="&#x2022;" horiz-adv-x="616" d="M117 678q0 103 67 174.5t166 71.5q77 0 125.5 -49.5t48.5 -126.5q0 -102 -68 -171t-163 -69q-81 0 -128.5 47t-47.5 123z" />
<glyph unicode="&#x2026;" horiz-adv-x="1226" d="M18 78q0 63 43 107t105 44q49 0 78.5 -30t29.5 -78q0 -65 -42 -109.5t-105 -44.5q-52 0 -80.5 30.5t-28.5 80.5zM416 78q0 62 44 106.5t105 44.5q49 0 79 -30t30 -78q0 -64 -44 -109t-104 -45q-50 0 -80 31.5t-30 79.5zM815 78q0 63 44 107t104 44q50 0 79 -30t29 -78 q0 -65 -42 -109.5t-103 -44.5q-51 0 -81 31t-30 80z" />
<glyph unicode="&#x202f;" horiz-adv-x="379" />
<glyph unicode="&#x2039;" horiz-adv-x="704" d="M49 510q280 270 422 491h188q-160 -241 -407 -491q148 -206 266 -510h-188q-100 273 -281 510z" />
<glyph unicode="&#x203a;" horiz-adv-x="704" d="M12 0q199 300 412 510q-181 250 -270 491h188q44 -124 111 -237.5t172 -253.5q-262 -251 -422 -510h-191z" />
<glyph unicode="&#x205f;" horiz-adv-x="474" />
<glyph unicode="&#x20ac;" horiz-adv-x="1241" d="M57 500l17 106h119q6 63 18 125h-121l16 105h134q42 129 114.5 230t160.5 162t181 92.5t185 31.5q224 0 323 -115l-35 -242q-40 88 -118 128t-197 40q-143 0 -248.5 -82.5t-156.5 -244.5h469l-15 -105h-481q-8 -39 -16 -125h479l-17 -106h-465q3 -346 308 -346 q242 0 362 157l-33 -225q-134 -121 -356 -121q-111 0 -199 29t-156 89.5t-104.5 162.5t-36.5 239v15h-131z" />
<glyph unicode="&#x2122;" horiz-adv-x="1927" d="M199 1243l18 131h698l-18 -131h-264l-92 -643h-168l92 643h-266zM924 600l108 774h142l233 -366l322 366h143l-111 -774h-159l75 533l-280 -314h-45l-195 316l-76 -535h-157z" />
<glyph unicode="&#x25fc;" horiz-adv-x="1116" d="M0 0v1116h1116v-1116h-1116z" />
</font>
</defs>
</svg>
